<svg xmlns="http://www.w3.org/2000/svg" width="25" height="37.5" viewBox="0 0 25 37.5">
  <g id="comment" transform="translate(-0.001 8.309)">
    <path id="Path_72" data-name="Path 72" d="M21.564-1.332H3.438A3.482,3.482,0,0,0,0,2.187V13.543a3.483,3.483,0,0,0,3.425,3.519v5.153l7.234-5.153h10.9A3.483,3.483,0,0,0,25,13.543V2.187a3.482,3.482,0,0,0-3.437-3.519Zm1.972,14.875a2,2,0,0,1-1.972,2.019H10.2L4.89,19.345V15.562H3.438a2,2,0,0,1-1.972-2.019V2.187A2,2,0,0,1,3.438.168H21.564a2,2,0,0,1,1.972,2.019Zm0,0" fill="#127681"/>
    <path id="Path_73" data-name="Path 73" d="M171.293,131.172h0v37.5h0Zm0,0" transform="translate(-146.292 -139.48)" fill="#127681"/>
    <path id="Path_74" data-name="Path 74" d="M171.293,211.172h0v37.5h0Zm0,0" transform="translate(-146.292 -219.48)" fill="#127681"/>
    <path id="Path_75" data-name="Path 75" d="M171.293,291.172h0v37.5h0Zm0,0" transform="translate(-146.292 -299.48)" fill="#127681"/>
  </g>
</svg>
