<svg id="Group_84" data-name="Group 84" xmlns="http://www.w3.org/2000/svg" width="56.563" height="60.29" viewBox="0 0 56.563 60.29">
  <path id="Path_1" data-name="Path 1" d="M895.435,2810.307a10.382,10.382,0,0,0-5.533,8.04c.849-.11,1.876-.356,2.081-1.191a8.567,8.567,0,0,1,10.929-6.15,10.563,10.563,0,0,0-4.355,5.013,7.468,7.468,0,0,0,2.4-2.329,11.062,11.062,0,0,1,4.246-3.081,10.3,10.3,0,0,0-5.18-1.373,10.171,10.171,0,0,0-4.585,1.071Z" transform="translate(-871.759 -2809.236)" fill="#fff"/>
  <path id="Path_2" data-name="Path 2" d="M1134.2,2852.779a2.827,2.827,0,0,0-1.136.507,15.586,15.586,0,0,0-3.342,3.027,2.051,2.051,0,0,0-.534,1.041c.356.219.767-.165,1.027-.479a11.494,11.494,0,0,1,5.067-3.63,1.03,1.03,0,0,0-.917-.476,1.321,1.321,0,0,0-.165.01Z" transform="translate(-1100.174 -2850.791)" fill="#fff"/>
  <path id="Path_3" data-name="Path 3" d="M1176.433,2879.158a9.881,9.881,0,0,0-4.15,3.411c.548.274,1.109-.3,1.533-.739a5.5,5.5,0,0,1,2.493-1.466,8.685,8.685,0,0,1,1.41,2.739,4.65,4.65,0,0,0,.507,1.273,1.178,1.178,0,0,0,1.164.548c.164-.028.329-.151.3-.315a10.055,10.055,0,0,0-2.452-5.273.758.758,0,0,0-.356-.26.473.473,0,0,0-.083-.007,1.131,1.131,0,0,0-.369.089Z" transform="translate(-1141.308 -2875.896)" fill="#fff"/>
  <path id="Path_4" data-name="Path 4" d="M798.727,2991.114a1.407,1.407,0,0,0-.644.466,1.43,1.43,0,0,0-.1.863c.534,4.821,1.055,9.655,1.589,14.476-1.521-4.821-1.9-9.93-2.273-14.983a1.122,1.122,0,0,0-1.233.74,3.117,3.117,0,0,0-.123,1.548,99.742,99.742,0,0,0,10.709,36.9c.452.89-.52,1.835-1.438,2.232s-2.026.849-2.163,1.835a19.86,19.86,0,0,1,14.53-.041c-.178-.972-1.3-1.4-2.2-1.794s-1.863-1.355-1.4-2.232a100.484,100.484,0,0,0,10.737-36.458,3.945,3.945,0,0,0-.1-1.835,1.4,1.4,0,0,0-1.4-1,62.931,62.931,0,0,1-2.11,14.8q.74-7.211,1.493-14.408c.041-.342.027-.767-.288-.9a28.7,28.7,0,0,0-23.6-.206Zm.917,1.835a28.006,28.006,0,0,1,21.406,0c-.288.4-1.356.014-1.356.014s-1.123-.26-1.287.191a8.528,8.528,0,0,1-8.23,5.6,1.4,1.4,0,0,1-.9-.274c-.411-.384-.3-1.041-.137-1.588.452-1.6.9-3.2,1.356-4.821-1.753,1.534-2.136,4.081-2.383,6.4a1.2,1.2,0,0,1-.945-1.055,3.515,3.515,0,0,1,.233-1.493c.384-1.26.781-2.534,1.164-3.808a7.36,7.36,0,0,0-2.192,5.547.86.86,0,0,1-.835-.7,2.654,2.654,0,0,1,.109-1.177c.315-1.178.617-2.342.932-3.506a6.224,6.224,0,0,0-1.849,4.342,10.911,10.911,0,0,1-2.4-3.945,6.912,6.912,0,0,1-1.923.379,2.65,2.65,0,0,1-.762-.105Zm20.379.781c-1.055,13.024-2.7,26.281-8.368,38.059q1.109-15.017,2.2-30.034a.958.958,0,0,0-1.424.165,2.646,2.646,0,0,0-.411,1.561c-.26,4.848-.534,9.683-.795,14.518.035-.64-.017-1.3-.026-1.938q-.013-.99-.025-1.979-.025-1.978-.049-3.957-.023-1.92-.047-3.838-.012-.95-.024-1.9a14.036,14.036,0,0,0-.044-1.837.846.846,0,0,0-.38-.638.7.7,0,0,0-.748.094,1.153,1.153,0,0,0-.383.683,6.656,6.656,0,0,0-.032,1.377l.013,1.128q.014,1.252.028,2.5.029,2.6.059,5.205.023,1.982.045,3.965l.009.792a1.174,1.174,0,0,0,0,.285,39.576,39.576,0,0,1-.493-6.012c-.081-1.709-.328-5.413-.456-8.526a2.993,2.993,0,0,0-.308-1.475c-.176-.278-.587-.681-1.357-.159.26,10.067,1.012,20.034,2.258,30-.52-.013-.822-.575-1-1.067a115.025,115.025,0,0,1-7.6-36.95,10.111,10.111,0,0,0,19.351-.027Z" transform="translate(-782.036 -2980.524)" fill="#fff"/>
  <path id="Path_5" data-name="Path 5" d="M490.779,3142.431a27.176,27.176,0,0,0,14.941,21.433c.411-.534.521-1.451-.068-1.793a24.931,24.931,0,0,1-11.9-16.49A23.5,23.5,0,0,1,498.845,3126a16.575,16.575,0,0,0,2.63-3.41,3.817,3.817,0,0,0-.192-4.068,27.188,27.188,0,0,0-10.5,23.912Z" transform="translate(-490.659 -3104.464)" fill="#fff"/>
  <path id="Path_6" data-name="Path 6" d="M1401.049,3124.411a23.894,23.894,0,0,1-4.273,37.771,2.443,2.443,0,0,0-1.082.986c-.178.466.109,1.123.616,1.082a.941.941,0,0,0,.37-.137,26.673,26.673,0,0,0,3.78-44.989,4.266,4.266,0,0,0,.588,5.286Z" transform="translate(-1354.516 -3105.042)" fill="#fff"/>
  <path id="Path_7" data-name="Path 7" d="M564.9,3243.231a22.028,22.028,0,0,0,2.89,15.476,33.91,33.91,0,0,1-2.1-6.4,21.521,21.521,0,0,1,5.368-18.722,8.877,8.877,0,0,0,1.507-1.862,2.34,2.34,0,0,0,.068-2.3,24.926,24.926,0,0,0-7.738,13.8Z" transform="translate(-561.194 -3210.332)" fill="#fff"/>
  <path id="Path_8" data-name="Path 8" d="M877.062,3997.248a10.83,10.83,0,0,0-4.342,1.876,6.048,6.048,0,0,0-2.41,3.972,30.192,30.192,0,0,1,22.049,0,5.569,5.569,0,0,0-2.136-3.807,10.615,10.615,0,0,0-4.04-1.89,19.189,19.189,0,0,0-9.121-.151Z" transform="translate(-853.057 -3942.805)" fill="#fff"/>
  <path id="Path_9" data-name="Path 9" d="M1477.576,3230.884h0c-.263.844-.48,1.891.178,2.494a22.059,22.059,0,0,1,1.909,2,22.678,22.678,0,0,1,4.292,7.871,22.036,22.036,0,0,1,.97,6.008,22.746,22.746,0,0,1-1.318,8.109,22.263,22.263,0,0,1-1.183,2.717l.009-.014-.007.015a20.718,20.718,0,0,0,2.449-5.509,22.321,22.321,0,0,0,.484-9.939,24.486,24.486,0,0,0-7.78-13.751h0Z" transform="translate(-1432.482 -3211.722)" fill="#fff"/>
  <path id="Path_10" data-name="Path 10" d="M1493.185,3261.919a.156.156,0,0,0-.073.042.177.177,0,0,0-.048.116.168.168,0,0,0,.016.082.494.494,0,0,0,.049.1l.051.074a1.209,1.209,0,0,0,.083.1,1.086,1.086,0,0,0,.126.114.155.155,0,0,0,.184.023.153.153,0,0,0,.055-.208c-.026-.04-.048-.083-.076-.122l-.057-.079c-.037-.05-.074-.1-.112-.149-.011-.017-.024-.034-.037-.049a.154.154,0,0,0-.117-.048.16.16,0,0,0-.044.006Z" transform="translate(-1447.511 -3241.342)" fill="#fff"/>
</svg>
