<svg xmlns="http://www.w3.org/2000/svg" width="917.816" height="814.855" viewBox="0 0 917.816 814.855">
  <path id="Subtraction_10" data-name="Subtraction 10" d="M379.17,545.473c-12.935,0-25.978-.474-38.768-1.408-12.6-.921-25.272-2.311-37.648-4.133-12.216-1.8-24.441-4.059-36.337-6.721-11.764-2.632-23.484-5.717-34.837-9.171-11.248-3.422-22.4-7.286-33.145-11.485-10.668-4.168-21.186-8.765-31.263-13.661a382.891,382.891,0,0,1-56.116-33.3c-8.547-6.148-16.781-12.665-24.472-19.368-7.71-6.72-15.054-13.784-21.828-21a275.764,275.764,0,0,1-18.992-22.487A250.08,250.08,0,0,1,29.8,378.9a228.8,228.8,0,0,1-12.75-25.058A212.873,212.873,0,0,1,7.7,327.7a203.088,203.088,0,0,1-5.746-27.08,199.592,199.592,0,0,1,0-55.772A203.087,203.087,0,0,1,7.7,217.771a212.872,212.872,0,0,1,9.343-26.138A228.8,228.8,0,0,1,29.8,166.575a250.081,250.081,0,0,1,15.967-23.841,275.748,275.748,0,0,1,18.992-22.487c6.774-7.212,14.118-14.276,21.828-21,7.691-6.7,15.925-13.22,24.472-19.368a382.889,382.889,0,0,1,56.116-33.3c10.076-4.9,20.595-9.493,31.263-13.661,10.745-4.2,21.9-8.063,33.145-11.485,11.352-3.454,23.073-6.539,34.837-9.171,11.9-2.661,24.122-4.923,36.337-6.721C315.13,3.719,327.8,2.329,340.4,1.408,353.192.474,366.235,0,379.17,0s25.978.474,38.768,1.408c12.6.921,25.272,2.311,37.648,4.133,12.216,1.8,24.441,4.059,36.338,6.721,11.764,2.632,23.484,5.717,34.837,9.171,11.248,3.422,22.4,7.286,33.145,11.485,10.668,4.168,21.186,8.765,31.263,13.661a382.887,382.887,0,0,1,56.116,33.3c8.547,6.148,16.781,12.665,24.472,19.368,7.71,6.72,15.054,13.784,21.828,21a275.744,275.744,0,0,1,18.992,22.487,250.081,250.081,0,0,1,15.967,23.841,228.784,228.784,0,0,1,12.75,25.058,212.862,212.862,0,0,1,9.343,26.138,203.052,203.052,0,0,1,5.746,27.08,199.589,199.589,0,0,1,0,55.772,203.053,203.053,0,0,1-5.746,27.08,212.862,212.862,0,0,1-9.343,26.138,228.785,228.785,0,0,1-12.75,25.058,250.079,250.079,0,0,1-15.967,23.841,275.76,275.76,0,0,1-18.992,22.487c-6.774,7.212-14.118,14.276-21.828,21-7.691,6.7-15.925,13.22-24.472,19.368a382.889,382.889,0,0,1-56.116,33.3c-10.076,4.9-20.595,9.493-31.263,13.661-10.745,4.2-21.9,8.063-33.145,11.485-11.352,3.454-23.073,6.539-34.837,9.171-11.9,2.661-24.122,4.923-36.338,6.721-12.376,1.822-25.043,3.212-37.648,4.133C405.148,545,392.1,545.473,379.17,545.473ZM341.441,20.455a508.109,508.109,0,0,0-63.49,3.954,465.867,465.867,0,0,0-59.134,11.341A405.659,405.659,0,0,0,165.3,53.7a332.919,332.919,0,0,0-46.624,23.767,257.954,257.954,0,0,0-38.468,28.805A192.617,192.617,0,0,0,51.167,139.33,146.389,146.389,0,0,0,32.81,175.864a127.4,127.4,0,0,0-4.774,19.325,122.555,122.555,0,0,0,0,39.8,127.4,127.4,0,0,0,4.774,19.325,146.387,146.387,0,0,0,18.356,36.535,192.626,192.626,0,0,0,29.046,33.061,257.945,257.945,0,0,0,38.468,28.805A332.937,332.937,0,0,0,165.3,376.484a405.66,405.66,0,0,0,53.513,17.945,465.86,465.86,0,0,0,59.134,11.341,508.105,508.105,0,0,0,63.49,3.954,508.109,508.109,0,0,0,63.49-3.954,465.87,465.87,0,0,0,59.135-11.341,405.664,405.664,0,0,0,53.513-17.945A332.935,332.935,0,0,0,564.2,352.717a257.949,257.949,0,0,0,38.468-28.805,192.615,192.615,0,0,0,29.046-33.061,146.386,146.386,0,0,0,18.356-36.535,127.388,127.388,0,0,0,4.774-19.325,122.551,122.551,0,0,0,0-39.8,127.39,127.39,0,0,0-4.774-19.325,146.391,146.391,0,0,0-18.356-36.535,192.617,192.617,0,0,0-29.046-33.062A257.952,257.952,0,0,0,564.2,77.463,332.932,332.932,0,0,0,517.578,53.7a405.661,405.661,0,0,0-53.513-17.945A465.87,465.87,0,0,0,404.931,24.41,508.112,508.112,0,0,0,341.441,20.455Z" transform="translate(917.816 494.367) rotate(155)" fill="#df0e62" opacity="0.21"/>
</svg>
