<svg xmlns="http://www.w3.org/2000/svg" width="1206" height="880" viewBox="0 0 1206 880">
  <path id="Subtraction_9" data-name="Subtraction 9" d="M603,880c-20.57,0-41.313-.764-61.653-2.272-20.046-1.485-40.19-3.729-59.872-6.668-19.427-2.9-38.87-6.549-57.788-10.842-18.708-4.246-37.348-9.224-55.4-14.8-17.888-5.521-35.622-11.754-52.711-18.528-16.966-6.725-33.693-14.14-49.718-22.039a607.107,607.107,0,0,1-89.242-53.728c-13.593-9.919-26.687-20.431-38.919-31.246-12.261-10.841-23.94-22.237-34.713-33.873a443.365,443.365,0,0,1-30.2-36.278,403.907,403.907,0,0,1-25.392-38.462A371.187,371.187,0,0,1,27.11,570.843a346.7,346.7,0,0,1-14.859-42.167,331.752,331.752,0,0,1-9.138-43.688,326.6,326.6,0,0,1,0-89.975,331.751,331.751,0,0,1,9.138-43.688A346.7,346.7,0,0,1,27.11,309.158a371.192,371.192,0,0,1,20.277-40.425A403.908,403.908,0,0,1,72.779,230.27a443.349,443.349,0,0,1,30.2-36.278c10.773-11.636,22.452-23.032,34.713-33.873,12.231-10.815,25.326-21.327,38.919-31.246a607.1,607.1,0,0,1,89.242-53.728c16.024-7.9,32.752-15.314,49.718-22.039C332.663,46.332,350.4,40.1,368.285,34.577c18.054-5.572,36.693-10.55,55.4-14.8,18.919-4.294,38.361-7.942,57.788-10.842C501.157,6,521.3,3.757,541.347,2.272,561.687.764,582.43,0,603,0s41.313.764,61.653,2.272C684.7,3.757,704.843,6,724.526,8.939c19.427,2.9,38.87,6.549,57.788,10.842,18.708,4.246,37.348,9.224,55.4,14.8C855.6,40.1,873.337,46.332,890.426,53.106c16.966,6.725,33.693,14.14,49.718,22.039a607.1,607.1,0,0,1,89.242,53.728c13.593,9.919,26.687,20.431,38.919,31.246,12.261,10.841,23.94,22.237,34.713,33.873a443.349,443.349,0,0,1,30.2,36.278,403.916,403.916,0,0,1,25.392,38.462,371.177,371.177,0,0,1,20.277,40.425,346.687,346.687,0,0,1,14.859,42.167,331.715,331.715,0,0,1,9.138,43.688,326.6,326.6,0,0,1,0,89.975,331.716,331.716,0,0,1-9.138,43.688,346.686,346.686,0,0,1-14.859,42.167,371.171,371.171,0,0,1-20.277,40.425,403.914,403.914,0,0,1-25.392,38.462,443.365,443.365,0,0,1-30.2,36.278c-10.773,11.635-22.452,23.032-34.713,33.873-12.231,10.815-25.326,21.327-38.919,31.246a607.1,607.1,0,0,1-89.242,53.728c-16.024,7.9-32.752,15.314-49.718,22.039-17.089,6.774-34.823,13.008-52.711,18.528-18.054,5.572-36.693,10.55-55.4,14.8-18.919,4.294-38.361,7.942-57.788,10.842-19.682,2.939-39.826,5.182-59.872,6.668C644.313,879.236,623.57,880,603,880ZM543,33A796.708,796.708,0,0,0,442.031,39.38a731.483,731.483,0,0,0-94.043,18.3,638.767,638.767,0,0,0-85.1,28.951,526.634,526.634,0,0,0-74.147,38.342,410.764,410.764,0,0,0-61.177,46.471,309.438,309.438,0,0,0-46.192,53.338,237.52,237.52,0,0,0-29.192,58.941A207.981,207.981,0,0,0,44.587,314.9a200.532,200.532,0,0,0,0,64.209,207.976,207.976,0,0,0,7.592,31.177,237.515,237.515,0,0,0,29.192,58.941,309.449,309.449,0,0,0,46.192,53.337,410.751,410.751,0,0,0,61.177,46.471,526.67,526.67,0,0,0,74.147,38.342,638.774,638.774,0,0,0,85.1,28.95,731.474,731.474,0,0,0,94.043,18.3A796.71,796.71,0,0,0,543,661a796.716,796.716,0,0,0,100.969-6.379,731.489,731.489,0,0,0,94.043-18.3,638.776,638.776,0,0,0,85.1-28.95,526.661,526.661,0,0,0,74.147-38.342,410.754,410.754,0,0,0,61.176-46.471,309.433,309.433,0,0,0,46.192-53.337,237.513,237.513,0,0,0,29.192-58.941,207.959,207.959,0,0,0,7.592-31.177,200.528,200.528,0,0,0,0-64.209,207.964,207.964,0,0,0-7.592-31.177,237.523,237.523,0,0,0-29.192-58.941,309.441,309.441,0,0,0-46.192-53.338,410.758,410.758,0,0,0-61.176-46.471,526.647,526.647,0,0,0-74.147-38.342,638.769,638.769,0,0,0-85.1-28.951,731.487,731.487,0,0,0-94.043-18.3A796.714,796.714,0,0,0,543,33Z" transform="translate(0 0)" fill="#df0e62" opacity="0.21"/>
</svg>
