<svg xmlns="http://www.w3.org/2000/svg" width="704.721" height="400.868" viewBox="0 0 704.721 400.868">
  <path id="inp-header-before" d="M200.561,318.821a432.108,432.108,0,0,1-57.91-4.96,303.69,303.69,0,0,1-50.232-12.112,196.894,196.894,0,0,1-40.945-19.011,125.261,125.261,0,0,1-30.046-25.655,96.5,96.5,0,0,1-10.434-15.24A88.46,88.46,0,0,1,.383,207.133,96.493,96.493,0,0,1,.51,188.665a125.239,125.239,0,0,1,10.563-38.071,196.933,196.933,0,0,1,23.314-38.656,303.685,303.685,0,0,1,34.87-38.131,432.219,432.219,0,0,1,45.237-36.5A561.016,561.016,0,0,1,168.9,3.565,669.575,669.575,0,0,1,231.29-26.324c22.258-9.307,45.532-17.691,69.175-24.92s47.626-13.292,71.284-18.022a669.428,669.428,0,0,1,68.435-10.107,561,561,0,0,1,63.978-2.447,432.1,432.1,0,0,1,57.91,4.96A303.693,303.693,0,0,1,612.3-64.749a196.9,196.9,0,0,1,40.945,19.011,125.286,125.286,0,0,1,30.047,25.655A96.511,96.511,0,0,1,693.727-4.844,88.483,88.483,0,0,1,704.34,29.867a96.566,96.566,0,0,1-.128,18.468,125.268,125.268,0,0,1-10.564,38.071,196.866,196.866,0,0,1-23.314,38.657,303.676,303.676,0,0,1-34.87,38.13,431.992,431.992,0,0,1-45.237,36.495,561.013,561.013,0,0,1-54.408,33.747,669.347,669.347,0,0,1-62.388,29.889c-22.258,9.307-45.531,17.691-69.175,24.92s-47.626,13.292-71.283,18.022a669.451,669.451,0,0,1-68.436,10.108c-18.147,1.7-36,2.559-53.231,2.559Q205.893,318.935,200.561,318.821ZM375-57.347c-60.739,18.571-114.641,46.5-151.776,78.655s-53.057,64.671-44.833,91.57S218,157.833,266.762,163.722s109.072-1.094,169.812-19.664S551.215,97.554,588.35,65.4,641.406.732,633.182-26.168s-39.608-44.955-88.373-50.844a297.359,297.359,0,0,0-35.573-2.037C468.109-79.047,421.68-71.619,375-57.347Z" transform="translate(704.721 318.935) rotate(180)" fill="#fff" opacity="0.25"/>
</svg>
