<svg xmlns="http://www.w3.org/2000/svg" width="696.413" height="324.158" viewBox="0 0 696.413 324.158">
  <path id="inp-header-after" d="M434.994,322.089c-22.091-1.7-44.844-4.446-67.629-8.174-23.378-3.825-47.079-8.728-70.443-14.574s-46.364-12.625-68.359-20.151c-21.437-7.335-42.179-15.466-61.653-24.169a586.394,586.394,0,0,1-53.767-27.29,423.128,423.128,0,0,1-44.7-29.511,272.206,272.206,0,0,1-34.46-30.834,156.837,156.837,0,0,1-23.039-31.26C5.247,125.645,1.735,115.286.5,105.341A63.954,63.954,0,0,1,.377,90.407,60.681,60.681,0,0,1,3.843,75.928a65.765,65.765,0,0,1,7.021-13.589A79.571,79.571,0,0,1,21.175,50.015c7.816-7.681,17.806-14.661,29.692-20.745A216.9,216.9,0,0,1,91.328,13.9,356.46,356.46,0,0,1,140.968,4.1,519.635,519.635,0,0,1,198.2.092c20.262-.352,41.533.313,63.223,1.978,22.091,1.7,44.845,4.445,67.63,8.174,23.378,3.825,47.078,8.728,70.443,14.574s46.363,12.625,68.359,20.151C489.287,52.3,510.03,60.435,529.5,69.138a586.047,586.047,0,0,1,53.767,27.29,422.892,422.892,0,0,1,44.7,29.511,272.147,272.147,0,0,1,34.46,30.834,156.774,156.774,0,0,1,23.039,31.259c5.7,10.483,9.207,20.841,10.439,30.786a63.9,63.9,0,0,1,.126,14.934,60.617,60.617,0,0,1-3.466,14.479,65.7,65.7,0,0,1-7.021,13.59,79.514,79.514,0,0,1-10.31,12.323c-7.817,7.681-17.807,14.661-29.692,20.746a216.936,216.936,0,0,1-40.462,15.373,356.59,356.59,0,0,1-49.64,9.795,519.613,519.613,0,0,1-57.227,4.01q-5.261.091-10.613.091C470.576,324.159,452.93,323.465,434.994,322.089ZM263.616,125.511c-48.19,4.762-79.2,19.364-87.331,41.116s7.607,48.048,44.3,74.047,89.964,48.587,149.988,63.6,119.619,20.663,167.809,15.9,79.2-19.364,87.331-41.115-7.608-48.049-44.3-74.048-89.962-48.587-149.986-63.6c-46.132-11.541-92.017-17.548-132.659-17.549C286.528,123.865,274.77,124.409,263.616,125.511Z" transform="translate(0 0)" fill="#fff" opacity="0.25"/>
</svg>
