<svg xmlns="http://www.w3.org/2000/svg" width="1231" height="712.999" viewBox="0 0 1231 712.999">
  <path id="latest-news-before" d="M615.5,713c-20.992,0-42.165-.619-62.931-1.841-20.467-1.2-41.029-3.022-61.113-5.4A964.488,964.488,0,0,1,375.92,684.984a829.823,829.823,0,0,1-104.551-32.869,667.83,667.83,0,0,1-91.092-43.532,502.771,502.771,0,0,1-75.158-52.761,393.885,393.885,0,0,1-30.83-29.393,332.228,332.228,0,0,1-25.918-31.163,282.247,282.247,0,0,1-20.7-32.754A245.11,245.11,0,0,1,12.5,428.346a221.386,221.386,0,0,1-9.327-35.4,210.63,210.63,0,0,1,0-72.9,221.386,221.386,0,0,1,9.327-35.4,245.1,245.1,0,0,1,15.167-34.165,282.224,282.224,0,0,1,20.7-32.754A332.222,332.222,0,0,1,74.288,186.57a393.89,393.89,0,0,1,30.83-29.393,502.774,502.774,0,0,1,75.158-52.761,667.892,667.892,0,0,1,91.092-43.532A829.809,829.809,0,0,1,375.92,28.016,964.53,964.53,0,0,1,491.456,7.243c20.09-2.381,40.651-4.2,61.113-5.4C573.331.619,594.5,0,615.5,0s42.169.619,62.931,1.841c20.462,1.2,41.023,3.021,61.113,5.4A964.531,964.531,0,0,1,855.08,28.016,829.811,829.811,0,0,1,959.632,60.884a667.892,667.892,0,0,1,91.092,43.532,502.772,502.772,0,0,1,75.158,52.761,393.906,393.906,0,0,1,30.83,29.393,332.221,332.221,0,0,1,25.918,31.163,282.221,282.221,0,0,1,20.7,32.754,245.089,245.089,0,0,1,15.167,34.165,221.376,221.376,0,0,1,9.327,35.4,210.63,210.63,0,0,1,0,72.9,221.376,221.376,0,0,1-9.327,35.4,245.11,245.11,0,0,1-15.167,34.165,282.256,282.256,0,0,1-20.7,32.754,332.238,332.238,0,0,1-25.918,31.163,393.9,393.9,0,0,1-30.83,29.393,502.772,502.772,0,0,1-75.158,52.761,667.828,667.828,0,0,1-91.092,43.532A829.825,829.825,0,0,1,855.08,684.984a964.489,964.489,0,0,1-115.536,20.772c-20.085,2.381-40.646,4.2-61.113,5.4C657.666,712.38,636.492,713,615.5,713ZM545.154,18A895.285,895.285,0,0,0,446.1,23.454,812.341,812.341,0,0,0,353.84,39.1a692.126,692.126,0,0,0-83.488,24.753,548.036,548.036,0,0,0-72.741,32.783,402.538,402.538,0,0,0-60.016,39.733,278.951,278.951,0,0,0-45.316,45.6,193.885,193.885,0,0,0-28.639,50.4,159.185,159.185,0,0,0-7.448,26.657,150.565,150.565,0,0,0-2.538,27.45A155.849,155.849,0,0,0,67.518,350.06c8.936,20.1,22.19,39.657,39.4,58.115,16.9,18.126,37.635,35.235,61.639,50.85a491.659,491.659,0,0,0,80.592,41.792c41.841,17.243,88.046,30.642,137.333,39.826A868.677,868.677,0,0,0,545.154,554.95a895.252,895.252,0,0,0,99.054-5.454,812.462,812.462,0,0,0,92.259-15.644A692.106,692.106,0,0,0,819.955,509.1a548.047,548.047,0,0,0,72.74-32.783,402.518,402.518,0,0,0,60.016-39.734,278.958,278.958,0,0,0,45.316-45.6,193.879,193.879,0,0,0,28.639-50.4,159.18,159.18,0,0,0,7.448-26.657,149.744,149.744,0,0,0,0-54.9,159.186,159.186,0,0,0-7.448-26.657,193.886,193.886,0,0,0-28.639-50.4,278.952,278.952,0,0,0-45.316-45.6,402.512,402.512,0,0,0-60.016-39.733,548.047,548.047,0,0,0-72.74-32.783A692.144,692.144,0,0,0,736.467,39.1a812.337,812.337,0,0,0-92.259-15.644A895.282,895.282,0,0,0,545.154,18Z" transform="translate(0)" fill="#fff" opacity="0.48"/>
</svg>
