<svg xmlns="http://www.w3.org/2000/svg" width="1092" height="810" viewBox="0 0 1092 810">
  <path id="latest-news-after" d="M546,810c-18.625,0-37.407-.7-55.826-2.091-18.151-1.367-36.391-3.432-54.213-6.137-17.589-2.67-35.194-6.027-52.326-9.98-16.939-3.908-33.817-8.49-50.164-13.619a625.554,625.554,0,0,1-92.746-37.341,548.005,548.005,0,0,1-80.807-49.454,464.594,464.594,0,0,1-66.672-59.939A406.659,406.659,0,0,1,65.9,598.047a372.376,372.376,0,0,1-22.992-35.4,343.957,343.957,0,0,1-18.36-37.21,322.639,322.639,0,0,1-13.454-38.813,309.778,309.778,0,0,1-8.274-40.213,305.55,305.55,0,0,1,0-82.818,309.779,309.779,0,0,1,8.274-40.213,322.67,322.67,0,0,1,13.454-38.813,343.955,343.955,0,0,1,18.36-37.21,372.371,372.371,0,0,1,22.992-35.4A406.649,406.649,0,0,1,93.248,178.56a464.606,464.606,0,0,1,66.672-59.939,548,548,0,0,1,80.807-49.454,625.562,625.562,0,0,1,92.746-37.341c16.349-5.129,33.227-9.711,50.164-13.619,17.131-3.952,34.735-7.31,52.326-9.98,17.821-2.7,36.061-4.77,54.213-6.137C508.593.7,527.376,0,546,0s37.407.7,55.825,2.091c18.152,1.367,36.392,3.432,54.213,6.137,17.59,2.67,35.195,6.028,52.326,9.98,16.937,3.907,33.815,8.49,50.164,13.619a625.563,625.563,0,0,1,92.746,37.341,548.012,548.012,0,0,1,80.806,49.454,464.6,464.6,0,0,1,66.672,59.939,406.728,406.728,0,0,1,27.349,33.392,372.379,372.379,0,0,1,22.992,35.4,343.941,343.941,0,0,1,18.36,37.21,322.675,322.675,0,0,1,13.454,38.813,309.77,309.77,0,0,1,8.274,40.213,305.559,305.559,0,0,1,0,82.818,309.769,309.769,0,0,1-8.274,40.213,322.645,322.645,0,0,1-13.454,38.813,343.943,343.943,0,0,1-18.36,37.21,372.384,372.384,0,0,1-22.992,35.4,406.728,406.728,0,0,1-27.349,33.392,464.593,464.593,0,0,1-66.672,59.939,548.016,548.016,0,0,1-80.806,49.454,625.56,625.56,0,0,1-92.746,37.341c-16.347,5.129-33.225,9.711-50.164,13.619-17.131,3.952-34.736,7.31-52.326,9.98-17.822,2.705-36.062,4.77-54.213,6.137C583.407,809.3,564.625,810,546,810ZM476,24c-58.859,0-115.958,8.064-169.711,23.968a517.382,517.382,0,0,0-74.061,28.121A443.128,443.128,0,0,0,167.7,113.332a364.551,364.551,0,0,0-53.24,45.139,293.89,293.89,0,0,0-40.2,51.809C51.527,247.882,40,287.825,40,329s11.528,81.118,34.263,118.72a293.874,293.874,0,0,0,40.2,51.809,364.534,364.534,0,0,0,53.24,45.139,443.123,443.123,0,0,0,64.527,37.243,517.38,517.38,0,0,0,74.061,28.121C360.042,625.935,417.141,634,476,634s115.958-8.064,169.711-23.968a517.357,517.357,0,0,0,74.061-28.121A443.113,443.113,0,0,0,784.3,544.667a364.533,364.533,0,0,0,53.24-45.139,293.873,293.873,0,0,0,40.2-51.809C900.472,410.117,912,370.174,912,329s-11.528-81.118-34.263-118.72a293.882,293.882,0,0,0-40.2-51.809,364.538,364.538,0,0,0-53.24-45.139,443.115,443.115,0,0,0-64.527-37.243,517.359,517.359,0,0,0-74.061-28.121C591.958,32.064,534.859,24,476,24Z" transform="translate(1092 810) rotate(180)" fill="#fff" opacity="0.48"/>
</svg>
