<svg xmlns="http://www.w3.org/2000/svg" width="25" height="25.718" viewBox="0 0 25 25.718">
  <g id="like" transform="translate(-6.675 5)">
    <path id="Path_71" data-name="Path 71" d="M30.925,17.484a3.2,3.2,0,0,0,.748-2.135,3.28,3.28,0,0,0-.7-1.85,2.874,2.874,0,0,0-.683-3.308c-.855-.78-2.307-1.129-4.319-1.033a16.878,16.878,0,0,0-2.646.339H23.32c-.269.048-.554.108-.844.172a9.382,9.382,0,0,1,.672-3.125c.753-2.291.71-4.044-.14-5.217A3.419,3.419,0,0,0,20.271,0a1.351,1.351,0,0,0-1.038.473,3.618,3.618,0,0,0-.452,2.565c-.71,1.9-2.7,6.572-4.383,7.868a.576.576,0,0,0-.086.075,5.777,5.777,0,0,0-1.054,1.581,2.219,2.219,0,0,0-1.065-.269H8.912a2.239,2.239,0,0,0-2.237,2.237v8.739a2.239,2.239,0,0,0,2.237,2.237h3.281a2.233,2.233,0,0,0,1.291-.409l1.264.151a54.148,54.148,0,0,0,7.169.393c.64.048,1.242.075,1.8.075a12.067,12.067,0,0,0,2.5-.226,4.677,4.677,0,0,0,3.34-2.076,3.292,3.292,0,0,0,.366-2.06,3.43,3.43,0,0,0,1.221-2.791A3.633,3.633,0,0,0,30.925,17.484ZM8.912,24.056a.786.786,0,0,1-.785-.785V14.526a.786.786,0,0,1,.785-.785h3.281a.786.786,0,0,1,.785.785v8.739a.786.786,0,0,1-.785.785H8.912Zm20.636-7.2a.723.723,0,0,0-.1.877,2.238,2.238,0,0,1,.247.9,2.152,2.152,0,0,1-1.011,1.861.733.733,0,0,0-.247.828,1.9,1.9,0,0,1-.145,1.388,3.364,3.364,0,0,1-2.377,1.366A14.168,14.168,0,0,1,22,24.191h-.075a53.085,53.085,0,0,1-6.991-.382h-.005l-.543-.065a2.279,2.279,0,0,0,.048-.473V14.526a2.275,2.275,0,0,0-.1-.667,4.5,4.5,0,0,1,1-1.845C17.743,10.1,20.1,3.641,20.206,3.361A.681.681,0,0,0,20.238,3a3.361,3.361,0,0,1,.07-1.56,1.929,1.929,0,0,1,1.517.726c.549.758.527,2.114-.065,3.91-.9,2.737-.979,4.179-.264,4.813a1.172,1.172,0,0,0,1.172.21c.328-.075.64-.14.936-.188l.07-.016c1.651-.36,4.609-.581,5.636.355a1.547,1.547,0,0,1,.183,1.963.719.719,0,0,0,.129.936,2.037,2.037,0,0,1,.6,1.253A2,2,0,0,1,29.548,16.855Z" transform="translate(0 -5)" fill="#127681"/>
  </g>
</svg>
