<svg xmlns="http://www.w3.org/2000/svg" xmlns:xlink="http://www.w3.org/1999/xlink" width="378.681" height="60.29" viewBox="0 0 378.681 60.29">
  <defs>
    <style>
      .cls-1 {
        fill: none;
      }

      .cls-2 {
        clip-path: url(#clip-path);
      }

      .cls-3 {
        fill: #fff;
      }
    </style>
    <clipPath id="clip-path">
      <rect class="cls-1" width="378.681" height="60.29"/>
    </clipPath>
  </defs>
  <g id="logo" class="cls-2">
    <g id="Group_2" data-name="Group 2">
      <path id="Path_1" data-name="Path 1" class="cls-3" d="M895.435,2810.307a10.382,10.382,0,0,0-5.533,8.04c.849-.11,1.876-.356,2.081-1.191a8.567,8.567,0,0,1,10.929-6.15,10.563,10.563,0,0,0-4.355,5.013,7.468,7.468,0,0,0,2.4-2.329,11.062,11.062,0,0,1,4.246-3.081,10.3,10.3,0,0,0-5.18-1.373,10.171,10.171,0,0,0-4.585,1.071Z" transform="translate(-871.759 -2809.236)"/>
      <path id="Path_2" data-name="Path 2" class="cls-3" d="M1134.2,2852.779a2.827,2.827,0,0,0-1.136.507,15.586,15.586,0,0,0-3.342,3.027,2.051,2.051,0,0,0-.534,1.041c.356.219.767-.165,1.027-.479a11.494,11.494,0,0,1,5.067-3.63,1.03,1.03,0,0,0-.917-.476,1.321,1.321,0,0,0-.165.01Z" transform="translate(-1100.174 -2850.791)"/>
      <path id="Path_3" data-name="Path 3" class="cls-3" d="M1176.433,2879.158a9.881,9.881,0,0,0-4.15,3.411c.548.274,1.109-.3,1.533-.739a5.5,5.5,0,0,1,2.493-1.466,8.685,8.685,0,0,1,1.41,2.739,4.65,4.65,0,0,0,.507,1.273,1.178,1.178,0,0,0,1.164.548c.164-.028.329-.151.3-.315a10.055,10.055,0,0,0-2.452-5.273.758.758,0,0,0-.356-.26.473.473,0,0,0-.083-.007,1.131,1.131,0,0,0-.369.089Z" transform="translate(-1141.308 -2875.896)"/>
      <path id="Path_4" data-name="Path 4" class="cls-3" d="M798.727,2991.114a1.407,1.407,0,0,0-.644.466,1.43,1.43,0,0,0-.1.863c.534,4.821,1.055,9.655,1.589,14.476-1.521-4.821-1.9-9.93-2.273-14.983a1.122,1.122,0,0,0-1.233.74,3.117,3.117,0,0,0-.123,1.548,99.742,99.742,0,0,0,10.709,36.9c.452.89-.52,1.835-1.438,2.232s-2.026.849-2.163,1.835a19.86,19.86,0,0,1,14.53-.041c-.178-.972-1.3-1.4-2.2-1.794s-1.863-1.355-1.4-2.232a100.484,100.484,0,0,0,10.737-36.458,3.945,3.945,0,0,0-.1-1.835,1.4,1.4,0,0,0-1.4-1,62.931,62.931,0,0,1-2.11,14.8q.74-7.211,1.493-14.408c.041-.342.027-.767-.288-.9a28.7,28.7,0,0,0-23.6-.206Zm.917,1.835a28.006,28.006,0,0,1,21.406,0c-.288.4-1.356.014-1.356.014s-1.123-.26-1.287.191a8.528,8.528,0,0,1-8.23,5.6,1.4,1.4,0,0,1-.9-.274c-.411-.384-.3-1.041-.137-1.588.452-1.6.9-3.2,1.356-4.821-1.753,1.534-2.136,4.081-2.383,6.4a1.2,1.2,0,0,1-.945-1.055,3.515,3.515,0,0,1,.233-1.493c.384-1.26.781-2.534,1.164-3.808a7.36,7.36,0,0,0-2.192,5.547.86.86,0,0,1-.835-.7,2.654,2.654,0,0,1,.109-1.177c.315-1.178.617-2.342.932-3.506a6.224,6.224,0,0,0-1.849,4.342,10.911,10.911,0,0,1-2.4-3.945,6.912,6.912,0,0,1-1.923.379,2.65,2.65,0,0,1-.762-.105Zm20.379.781c-1.055,13.024-2.7,26.281-8.368,38.059q1.109-15.017,2.2-30.034a.958.958,0,0,0-1.424.165,2.646,2.646,0,0,0-.411,1.561c-.26,4.848-.534,9.683-.795,14.518.035-.64-.017-1.3-.026-1.938q-.013-.99-.025-1.979-.025-1.978-.049-3.957-.023-1.92-.047-3.838-.012-.95-.024-1.9a14.036,14.036,0,0,0-.044-1.837.846.846,0,0,0-.38-.638.7.7,0,0,0-.748.094,1.153,1.153,0,0,0-.383.683,6.656,6.656,0,0,0-.032,1.377l.013,1.128q.014,1.252.028,2.5.029,2.6.059,5.205.023,1.982.045,3.965l.009.792a1.174,1.174,0,0,0,0,.285,39.576,39.576,0,0,1-.493-6.012c-.081-1.709-.328-5.413-.456-8.526a2.993,2.993,0,0,0-.308-1.475c-.176-.278-.587-.681-1.357-.159.26,10.067,1.012,20.034,2.258,30-.52-.013-.822-.575-1-1.067a115.025,115.025,0,0,1-7.6-36.95,10.111,10.111,0,0,0,19.351-.027Z" transform="translate(-782.036 -2980.524)"/>
      <path id="Path_5" data-name="Path 5" class="cls-3" d="M490.779,3142.431a27.176,27.176,0,0,0,14.941,21.433c.411-.534.521-1.451-.068-1.793a24.931,24.931,0,0,1-11.9-16.49A23.5,23.5,0,0,1,498.845,3126a16.575,16.575,0,0,0,2.63-3.41,3.817,3.817,0,0,0-.192-4.068,27.188,27.188,0,0,0-10.5,23.912Z" transform="translate(-490.659 -3104.464)"/>
      <path id="Path_6" data-name="Path 6" class="cls-3" d="M1401.049,3124.411a23.894,23.894,0,0,1-4.273,37.771,2.443,2.443,0,0,0-1.082.986c-.178.466.109,1.123.616,1.082a.941.941,0,0,0,.37-.137,26.673,26.673,0,0,0,3.78-44.989,4.266,4.266,0,0,0,.588,5.286Z" transform="translate(-1354.516 -3105.042)"/>
      <path id="Path_7" data-name="Path 7" class="cls-3" d="M564.9,3243.231a22.028,22.028,0,0,0,2.89,15.476,33.91,33.91,0,0,1-2.1-6.4,21.521,21.521,0,0,1,5.368-18.722,8.877,8.877,0,0,0,1.507-1.862,2.34,2.34,0,0,0,.068-2.3,24.926,24.926,0,0,0-7.738,13.8Z" transform="translate(-561.194 -3210.332)"/>
      <path id="Path_8" data-name="Path 8" class="cls-3" d="M877.062,3997.248a10.83,10.83,0,0,0-4.342,1.876,6.048,6.048,0,0,0-2.41,3.972,30.192,30.192,0,0,1,22.049,0,5.569,5.569,0,0,0-2.136-3.807,10.615,10.615,0,0,0-4.04-1.89,19.189,19.189,0,0,0-9.121-.151Z" transform="translate(-853.057 -3942.805)"/>
      <path id="Path_9" data-name="Path 9" class="cls-3" d="M1477.576,3230.884h0c-.263.844-.48,1.891.178,2.494a22.059,22.059,0,0,1,1.909,2,22.678,22.678,0,0,1,4.292,7.871,22.036,22.036,0,0,1,.97,6.008,22.746,22.746,0,0,1-1.318,8.109,22.263,22.263,0,0,1-1.183,2.717l.009-.014-.007.015a20.718,20.718,0,0,0,2.449-5.509,22.321,22.321,0,0,0,.484-9.939,24.486,24.486,0,0,0-7.78-13.751h0Z" transform="translate(-1432.482 -3211.722)"/>
      <path id="Path_10" data-name="Path 10" class="cls-3" d="M1493.185,3261.919a.156.156,0,0,0-.073.042.177.177,0,0,0-.048.116.168.168,0,0,0,.016.082.494.494,0,0,0,.049.1l.051.074a1.209,1.209,0,0,0,.083.1,1.086,1.086,0,0,0,.126.114.155.155,0,0,0,.184.023.153.153,0,0,0,.055-.208c-.026-.04-.048-.083-.076-.122l-.057-.079c-.037-.05-.074-.1-.112-.149-.011-.017-.024-.034-.037-.049a.154.154,0,0,0-.117-.048.16.16,0,0,0-.044.006Z" transform="translate(-1447.511 -3241.342)"/>
    </g>
    <g id="Group_5" data-name="Group 5" transform="translate(76.568 22.447)">
      <g id="Group_3" data-name="Group 3">
        <path id="Path_11" data-name="Path 11" class="cls-3" d="M1933.511,3318.4v-13.537h3.127V3318.4Z" transform="translate(-1933.511 -3304.787)"/>
        <path id="Path_12" data-name="Path 12" class="cls-3" d="M2042.172,3309.915a6.83,6.83,0,0,1,.458-2.431,6.633,6.633,0,0,1,1.334-2.164,6.777,6.777,0,0,1,2.135-1.544,6.658,6.658,0,0,1,2.86-.591,6.437,6.437,0,0,1,3.308.82,5.306,5.306,0,0,1,2.088,2.135l-2.4,1.678a2.788,2.788,0,0,0-.582-.886,3.173,3.173,0,0,0-1.63-.877,4.466,4.466,0,0,0-.858-.085,3.226,3.226,0,0,0-1.563.362,3.43,3.43,0,0,0-1.106.934,3.877,3.877,0,0,0-.648,1.3,5.229,5.229,0,0,0-.21,1.468,4.841,4.841,0,0,0,.248,1.544,4.11,4.11,0,0,0,.715,1.315,3.442,3.442,0,0,0,1.125.906,3.217,3.217,0,0,0,1.478.334,3.807,3.807,0,0,0,.867-.1,3.54,3.54,0,0,0,.858-.325,3.052,3.052,0,0,0,.753-.572,2.68,2.68,0,0,0,.553-.867l2.555,1.506a3.972,3.972,0,0,1-.906,1.334,5.581,5.581,0,0,1-1.382.992,7.6,7.6,0,0,1-3.375.82,6.062,6.062,0,0,1-2.7-.6,6.828,6.828,0,0,1-2.116-1.592,7.288,7.288,0,0,1-1.373-2.25A7.036,7.036,0,0,1,2042.172,3309.915Z" transform="translate(-2037.234 -3303.185)"/>
        <path id="Path_13" data-name="Path 13" class="cls-3" d="M2327.892,3309.915a6.82,6.82,0,0,1,.458-2.431,6.62,6.62,0,0,1,1.334-2.164,6.768,6.768,0,0,1,2.135-1.544,6.656,6.656,0,0,1,2.86-.591,6.438,6.438,0,0,1,3.308.82,5.309,5.309,0,0,1,2.088,2.135l-2.4,1.678a2.791,2.791,0,0,0-.581-.886,3.2,3.2,0,0,0-.772-.572,3.151,3.151,0,0,0-.858-.305,4.47,4.47,0,0,0-.858-.085,3.225,3.225,0,0,0-1.563.362,3.433,3.433,0,0,0-1.106.934,3.886,3.886,0,0,0-.648,1.3,5.256,5.256,0,0,0-.209,1.468,4.841,4.841,0,0,0,.248,1.544,4.105,4.105,0,0,0,.715,1.315,3.442,3.442,0,0,0,1.125.906,3.217,3.217,0,0,0,1.478.334,3.811,3.811,0,0,0,.868-.1,3.546,3.546,0,0,0,.858-.325,3.057,3.057,0,0,0,.753-.572,2.671,2.671,0,0,0,.553-.867l2.555,1.506a3.98,3.98,0,0,1-.906,1.334,5.581,5.581,0,0,1-1.382.992,7.6,7.6,0,0,1-3.375.82,6.063,6.063,0,0,1-2.7-.6,6.829,6.829,0,0,1-2.117-1.592,7.292,7.292,0,0,1-1.373-2.25A7.036,7.036,0,0,1,2327.892,3309.915Z" transform="translate(-2309.97 -3303.185)"/>
        <path id="Path_14" data-name="Path 14" class="cls-3" d="M2714.294,3309.915a6.83,6.83,0,0,1,.458-2.431,6.62,6.62,0,0,1,1.334-2.164,6.779,6.779,0,0,1,2.135-1.544,6.66,6.66,0,0,1,2.86-.591,6.435,6.435,0,0,1,3.308.82,5.3,5.3,0,0,1,2.088,2.135l-2.4,1.678a2.793,2.793,0,0,0-.582-.886,3.171,3.171,0,0,0-1.63-.877,4.462,4.462,0,0,0-.857-.085,3.227,3.227,0,0,0-1.564.362,3.426,3.426,0,0,0-1.105.934,3.877,3.877,0,0,0-.648,1.3,5.238,5.238,0,0,0-.209,1.468,4.854,4.854,0,0,0,.248,1.544,4.1,4.1,0,0,0,.715,1.315,3.44,3.44,0,0,0,1.125.906,3.217,3.217,0,0,0,1.478.334,3.811,3.811,0,0,0,.868-.1,3.539,3.539,0,0,0,.858-.325,3.048,3.048,0,0,0,.753-.572,2.672,2.672,0,0,0,.553-.867l2.555,1.506a3.973,3.973,0,0,1-.906,1.334,5.57,5.57,0,0,1-1.382.992,7.6,7.6,0,0,1-3.375.82,6.063,6.063,0,0,1-2.7-.6,6.827,6.827,0,0,1-2.116-1.592,7.294,7.294,0,0,1-1.373-2.25A7.046,7.046,0,0,1,2714.294,3309.915Z" transform="translate(-2678.813 -3303.185)"/>
        <path id="Path_15" data-name="Path 15" class="cls-3" d="M3020.147,3318.4v-13.537h6.1a3.923,3.923,0,0,1,1.764.4,4.69,4.69,0,0,1,1.4,1.048,4.906,4.906,0,0,1,.924,1.468,4.368,4.368,0,0,1,.334,1.659,4.76,4.76,0,0,1-.153,1.211,4.711,4.711,0,0,1-.438,1.1,4.144,4.144,0,0,1-1.621,1.621l2.974,5.033h-3.527l-2.593-4.366h-2.04v4.366Zm3.127-7.093h2.86a1.174,1.174,0,0,0,.954-.524,2.153,2.153,0,0,0,.4-1.344,1.89,1.89,0,0,0-.458-1.334,1.341,1.341,0,0,0-.991-.5h-2.765Z" transform="translate(-2970.767 -3304.787)"/>
        <path id="Path_16" data-name="Path 16" class="cls-3" d="M3301.251,3318.4v-13.537h3.126V3318.4Z" transform="translate(-3239.096 -3304.787)"/>
        <path id="Path_17" data-name="Path 17" class="cls-3" d="M3409.911,3309.915a6.84,6.84,0,0,1,.458-2.431,6.62,6.62,0,0,1,1.334-2.164,6.77,6.77,0,0,1,2.136-1.544,6.656,6.656,0,0,1,2.859-.591,6.438,6.438,0,0,1,3.309.82,5.3,5.3,0,0,1,2.087,2.135l-2.4,1.678a2.784,2.784,0,0,0-.582-.886,3.171,3.171,0,0,0-1.63-.877,4.471,4.471,0,0,0-.858-.085,3.224,3.224,0,0,0-1.563.362,3.416,3.416,0,0,0-1.105.934,3.859,3.859,0,0,0-.648,1.3,5.221,5.221,0,0,0-.21,1.468,4.841,4.841,0,0,0,.248,1.544,4.124,4.124,0,0,0,.715,1.315,3.444,3.444,0,0,0,1.125.906,3.214,3.214,0,0,0,1.478.334,3.807,3.807,0,0,0,.867-.1,3.531,3.531,0,0,0,.858-.325,3.059,3.059,0,0,0,.753-.572,2.687,2.687,0,0,0,.553-.867l2.555,1.506a3.971,3.971,0,0,1-.905,1.334,5.59,5.59,0,0,1-1.382.992,7.6,7.6,0,0,1-3.375.82,6.065,6.065,0,0,1-2.7-.6,6.838,6.838,0,0,1-2.116-1.592,7.283,7.283,0,0,1-1.373-2.25A7.036,7.036,0,0,1,3409.911,3309.915Z" transform="translate(-3342.818 -3303.185)"/>
        <path id="Path_18" data-name="Path 18" class="cls-3" d="M3715.765,3318.4v-13.537h3.127v5.834l4.958-5.834h3.508l-5.072,6.044,5.415,7.493h-3.565l-3.832-5.453-1.411,1.468v3.985Z" transform="translate(-3634.773 -3304.787)"/>
        <path id="Path_19" data-name="Path 19" class="cls-3" d="M4010.152,3315.654v2.746h-9.514v-13.537h9.342v2.745h-6.216v2.631h5.339v2.536h-5.339v2.879Z" transform="translate(-3906.702 -3304.787)"/>
        <path id="Path_20" data-name="Path 20" class="cls-3" d="M4239.842,3307.608h-4.119V3318.4H4232.6v-10.792h-4.137v-2.745h11.383Z" transform="translate(-4124.169 -3304.787)"/>
        <path id="Path_21" data-name="Path 21" class="cls-3" d="M4559.1,3304.882h2.879l1.373,4.328,1.372-4.328h2.9l-2.269,6.292,1.373,3.642,3.394-9.953h3.412l-5.414,13.537H4565.5l-2.154-5.3-2.136,5.3h-2.631l-5.4-13.537h3.395l3.412,9.953,1.334-3.642Z" transform="translate(-4434.14 -3304.787)"/>
        <path id="Path_22" data-name="Path 22" class="cls-3" d="M5005.472,3316.913a6.3,6.3,0,0,1-2.746-.591,6.761,6.761,0,0,1-2.115-1.554,7.054,7.054,0,0,1-1.363-2.2,6.934,6.934,0,0,1-.486-2.555,6.774,6.774,0,0,1,.5-2.574,6.825,6.825,0,0,1,3.556-3.689,6.477,6.477,0,0,1,2.708-.563,6.3,6.3,0,0,1,2.745.591,6.685,6.685,0,0,1,2.116,1.563,7.037,7.037,0,0,1,1.354,2.212,6.947,6.947,0,0,1,.478,2.516,6.772,6.772,0,0,1-.5,2.574,6.848,6.848,0,0,1-3.537,3.7A6.388,6.388,0,0,1,5005.472,3316.913Zm-3.527-6.864a5.074,5.074,0,0,0,.229,1.517,4.037,4.037,0,0,0,.677,1.305,3.255,3.255,0,0,0,2.641,1.259,3.235,3.235,0,0,0,1.563-.362,3.388,3.388,0,0,0,1.105-.944,4.12,4.12,0,0,0,.658-1.315,5.224,5.224,0,0,0,.219-1.5,5.075,5.075,0,0,0-.229-1.516,3.857,3.857,0,0,0-.687-1.3,3.406,3.406,0,0,0-1.115-.9,3.3,3.3,0,0,0-1.516-.333,3.233,3.233,0,0,0-1.554.353,3.471,3.471,0,0,0-1.106.924,3.9,3.9,0,0,0-.667,1.307A5.191,5.191,0,0,0,5001.945,3310.049Z" transform="translate(-4859.467 -3303.185)"/>
        <path id="Path_23" data-name="Path 23" class="cls-3" d="M5334.826,3318.4v-13.537h6.1a3.926,3.926,0,0,1,1.764.4,4.708,4.708,0,0,1,1.4,1.048,4.946,4.946,0,0,1,.925,1.468,4.384,4.384,0,0,1,.333,1.659,4.8,4.8,0,0,1-.152,1.211,4.754,4.754,0,0,1-.438,1.1,4.15,4.15,0,0,1-1.621,1.621l2.975,5.033h-3.527l-2.593-4.366h-2.04v4.366Zm3.127-7.093h2.859a1.174,1.174,0,0,0,.954-.524,2.153,2.153,0,0,0,.4-1.344,1.888,1.888,0,0,0-.458-1.334,1.342,1.342,0,0,0-.991-.5h-2.765Z" transform="translate(-5180.26 -3304.787)"/>
        <path id="Path_24" data-name="Path 24" class="cls-3" d="M5615.93,3318.4v-13.537h3.127v10.791h6.559v2.746Z" transform="translate(-5448.589 -3304.787)"/>
        <path id="Path_25" data-name="Path 25" class="cls-3" d="M5861.367,3318.4v-13.537h5.052a7.463,7.463,0,0,1,2.936.534,5.9,5.9,0,0,1,3.385,3.594,7.872,7.872,0,0,1,.43,2.621,7.783,7.783,0,0,1-.477,2.793,6,6,0,0,1-1.364,2.136,6.117,6.117,0,0,1-2.135,1.373,7.594,7.594,0,0,1-2.774.486Zm8.617-6.788a5.249,5.249,0,0,0-.238-1.63,3.673,3.673,0,0,0-.7-1.268,3.033,3.033,0,0,0-1.125-.82,3.783,3.783,0,0,0-1.506-.286h-1.926v8.046h1.926a3.636,3.636,0,0,0,1.525-.3,3.088,3.088,0,0,0,1.115-.849,3.858,3.858,0,0,0,.687-1.278A5.179,5.179,0,0,0,5869.984,3311.612Z" transform="translate(-5682.873 -3304.787)"/>
        <path id="Path_26" data-name="Path 26" class="cls-3" d="M6242.315,3309.915a6.82,6.82,0,0,1,.458-2.431,6.619,6.619,0,0,1,1.334-2.164,6.781,6.781,0,0,1,2.136-1.544,6.657,6.657,0,0,1,2.86-.591,6.437,6.437,0,0,1,3.308.82,5.306,5.306,0,0,1,2.088,2.135l-2.4,1.678a2.8,2.8,0,0,0-.582-.886,3.166,3.166,0,0,0-1.63-.877,4.471,4.471,0,0,0-.858-.085,3.229,3.229,0,0,0-1.563.362,3.432,3.432,0,0,0-1.105.934,3.886,3.886,0,0,0-.648,1.3,5.257,5.257,0,0,0-.21,1.468,4.828,4.828,0,0,0,.249,1.544,4.068,4.068,0,0,0,.715,1.315,3.427,3.427,0,0,0,1.125.906,3.214,3.214,0,0,0,1.477.334,3.822,3.822,0,0,0,.868-.1,3.528,3.528,0,0,0,.857-.325,3.071,3.071,0,0,0,.754-.572,2.679,2.679,0,0,0,.553-.867l2.556,1.506a4.006,4.006,0,0,1-.907,1.334,5.552,5.552,0,0,1-1.382.992,7.594,7.594,0,0,1-3.374.82,6.062,6.062,0,0,1-2.7-.6,6.821,6.821,0,0,1-2.116-1.592,7.3,7.3,0,0,1-1.374-2.25A7.056,7.056,0,0,1,6242.315,3309.915Z" transform="translate(-6046.509 -3303.185)"/>
        <path id="Path_27" data-name="Path 27" class="cls-3" d="M6549.979,3315.73a2.573,2.573,0,0,0,1.354-.333,2.644,2.644,0,0,0,.9-.887,3.8,3.8,0,0,0,.486-1.268,7.452,7.452,0,0,0,.143-1.458v-6.921h3.127v6.921a9.463,9.463,0,0,1-.353,2.631,6.065,6.065,0,0,1-1.087,2.136,5.11,5.11,0,0,1-1.868,1.439,6.4,6.4,0,0,1-2.7.524,6.308,6.308,0,0,1-2.765-.553,5.124,5.124,0,0,1-1.859-1.478,6.072,6.072,0,0,1-1.048-2.145,9.635,9.635,0,0,1-.334-2.555v-6.921h3.127v6.921a7.025,7.025,0,0,0,.152,1.487,3.927,3.927,0,0,0,.5,1.259,2.446,2.446,0,0,0,2.23,1.2Z" transform="translate(-6334.459 -3304.787)"/>
        <path id="Path_28" data-name="Path 28" class="cls-3" d="M6861.577,3318.4v-13.537h5.776a3.97,3.97,0,0,1,1.783.4,4.593,4.593,0,0,1,1.392,1.048,5.038,5.038,0,0,1,.915,1.468,4.367,4.367,0,0,1,.334,1.659,4.762,4.762,0,0,1-.314,1.716,4.9,4.9,0,0,1-.878,1.468,4.13,4.13,0,0,1-1.363,1.03,4.071,4.071,0,0,1-1.773.381H6864.7v4.366Zm3.126-7.093h2.556a1.206,1.206,0,0,0,.952-.476,2.116,2.116,0,0,0,.4-1.392,2.409,2.409,0,0,0-.125-.82,1.67,1.67,0,0,0-.333-.572,1.281,1.281,0,0,0-.477-.333,1.455,1.455,0,0,0-.534-.105h-2.44Z" transform="translate(-6637.63 -3304.787)"/>
      </g>
      <g id="Group_4" data-name="Group 4" transform="translate(0 20.83)">
        <path id="Path_29" data-name="Path 29" class="cls-3" d="M1946.626,3783.292h-13.115V3766.75h13.115v3.308h-8.862v3.19h6.971v3.308h-6.971v3.426h8.862Z" transform="translate(-1933.511 -3766.514)"/>
        <path id="Path_30" data-name="Path 30" class="cls-3" d="M2293.722,3783.292h-4.489l-5.671-9.925v9.925h-4.254V3766.75h4.49l5.671,9.924v-9.924h4.253Z" transform="translate(-2263.594 -3766.514)"/>
        <path id="Path_31" data-name="Path 31" class="cls-3" d="M2678.756,3782.937a96.417,96.417,0,0,1-10.161.59,3.9,3.9,0,0,1-4.49-4.49v-7.562a4.06,4.06,0,0,1,4.727-4.726h8.507v3.308h-7.562a1.253,1.253,0,0,0-1.417,1.418v7.562a1.1,1.1,0,0,0,1.182,1.182q2.717,0,4.962-.119v-3.427h-3.072v-2.835h7.326Z" transform="translate(-2630.904 -3766.514)"/>
        <path id="Path_32" data-name="Path 32" class="cls-3" d="M3058.358,3779.983h8.625v3.309H3054.1V3766.75h4.254Z" transform="translate(-3003.18 -3766.514)"/>
        <path id="Path_33" data-name="Path 33" class="cls-3" d="M3357.707,3783.292H3353.1l6.262-16.542h4.726l6.262,16.542h-4.607l-1.064-2.954h-5.907Zm2.126-6.026h3.781l-1.891-5.554Z" transform="translate(-3288.588 -3766.514)"/>
        <path id="Path_34" data-name="Path 34" class="cls-3" d="M3788.709,3783.292h-4.49l-5.671-9.925v9.925h-4.253V3766.75h4.49l5.671,9.924v-9.924h4.253Z" transform="translate(-3690.644 -3766.514)"/>
        <path id="Path_35" data-name="Path 35" class="cls-3" d="M4178.708,3766.75a4.855,4.855,0,0,1,5.436,5.435v5.671a4.856,4.856,0,0,1-5.436,5.436h-9.216V3766.75Zm1.182,5.435a1.88,1.88,0,0,0-2.127-2.127h-4.017v9.925h4.017a1.88,1.88,0,0,0,2.127-2.127Z" transform="translate(-4067.882 -3766.514)"/>
        <path id="Path_36" data-name="Path 36" class="cls-3" d="M4729.656,3783.055q-5.364.473-9.688.473a3.9,3.9,0,0,1-4.489-4.49,4.776,4.776,0,0,1,.9-2.978,3.473,3.473,0,0,1,1.938-1.276,3.4,3.4,0,0,1-1.714-1.241,3.8,3.8,0,0,1-.649-2.3V3771a4.27,4.27,0,0,1,1.087-3.2,4.746,4.746,0,0,1,3.4-1.051H4728v3.308h-6.381a1.253,1.253,0,0,0-1.417,1.418v.709a1.253,1.253,0,0,0,1.417,1.417h3.781l.355-1.891h3.9v1.891h1.892v3.308h-1.892Zm-8.743-2.835q2.6,0,4.49-.119v-3.19h-4.253a1.253,1.253,0,0,0-1.418,1.418v.708a1.1,1.1,0,0,0,1.181,1.182Z" transform="translate(-4589.057 -3766.514)"/>
        <path id="Path_37" data-name="Path 37" class="cls-3" d="M5269.97,3766.75l2.837,10.633,2.481-10.633h4.607l-4.49,16.542h-4.489l-2.836-10.28-2.835,10.28h-4.491l-4.489-16.542h4.607l2.481,10.633,2.836-10.633Z" transform="translate(-5105.268 -3766.514)"/>
        <path id="Path_38" data-name="Path 38" class="cls-3" d="M5760.077,3783.292h-4.607l6.262-16.542h4.726l6.263,16.542h-4.607l-1.063-2.954h-5.908Zm2.128-6.026h3.78l-1.891-5.554Z" transform="translate(-5581.787 -3766.514)"/>
        <path id="Path_39" data-name="Path 39" class="cls-3" d="M6180.919,3779.983h8.625v3.309h-12.879V3766.75h4.254Z" transform="translate(-5983.843 -3766.514)"/>
        <path id="Path_40" data-name="Path 40" class="cls-3" d="M6525.175,3783.292H6512.06V3766.75h13.115v3.308h-8.862v3.19h6.972v3.308h-6.972v3.426h8.862Z" transform="translate(-6303.996 -3766.514)"/>
        <path id="Path_41" data-name="Path 41" class="cls-3" d="M6842.468,3779.865q6.475.354,8.767.355a1.1,1.1,0,0,0,1.182-1.182v-2.127h-5.436a4.058,4.058,0,0,1-4.726-4.726v-.709a4.058,4.058,0,0,1,4.726-4.726h8.295v3.308h-7.35a1.253,1.253,0,0,0-1.418,1.418v.473a1.253,1.253,0,0,0,1.418,1.417h4.253a3.9,3.9,0,0,1,4.49,4.49v1.182a3.9,3.9,0,0,1-4.49,4.49q-1.2,0-2.551-.047l-2.175-.095q-2.41-.119-4.985-.331Z" transform="translate(-6619.187 -3766.514)"/>
        <path id="Path_42" data-name="Path 42" class="cls-3" d="M7385.409,3771.949a4.45,4.45,0,0,1-1.7,3.474q-.521.448-1.135.9l-5.081,3.663h7.916v3.309h-12.761v-4.49l8.508-6.144v-1.182a1.253,1.253,0,0,0-1.418-1.418h-6.617v-3.308h7.563a4.059,4.059,0,0,1,4.726,4.726Z" transform="translate(-7125.477 -3766.514)"/>
        <path id="Path_43" data-name="Path 43" class="cls-3" d="M7719.388,3773.837a4.059,4.059,0,0,1-4.726,4.726h-4.489a4.061,4.061,0,0,1-4.728-4.726v-7.562a4.061,4.061,0,0,1,4.728-4.727h4.489a4.06,4.06,0,0,1,4.726,4.727Zm-4.253-7.562a1.253,1.253,0,0,0-1.418-1.418h-2.6a1.254,1.254,0,0,0-1.418,1.418v7.562a1.254,1.254,0,0,0,1.418,1.417h2.6a1.253,1.253,0,0,0,1.418-1.417Z" transform="translate(-7443.15 -3761.549)"/>
        <path id="Path_44" data-name="Path 44" class="cls-3" d="M8052.545,3783.292v-12.879l-2.718.945-1.182-2.717,4.372-1.891h3.78v16.542Z" transform="translate(-7770.754 -3766.514)"/>
        <path id="Path_45" data-name="Path 45" class="cls-3" d="M8286.428,3774.9q4.865.354,6.852.355a1.1,1.1,0,0,0,1.183-1.182v-2.126a20.243,20.243,0,0,1-4.019.472h-1.654a3.331,3.331,0,0,1-3.544-3.544V3765.8a4.267,4.267,0,0,1,1.087-3.2,4.745,4.745,0,0,1,3.4-1.052h4.489a4.743,4.743,0,0,1,3.4,1.052,4.268,4.268,0,0,1,1.089,3.2v8.271a3.9,3.9,0,0,1-4.492,4.49,77.374,77.374,0,0,1-7.8-.473Zm5.2-5.789a18.1,18.1,0,0,0,2.835-.236v-2.6a1.254,1.254,0,0,0-1.419-1.418h-2.126a1.253,1.253,0,0,0-1.418,1.418v2.008a.806.806,0,0,0,.828.827Z" transform="translate(-7996.603 -3761.549)"/>
      </g>
    </g>
  </g>
</svg>
