<svg xmlns="http://www.w3.org/2000/svg" width="731" height="375.378" viewBox="0 0 731 375.378">
  <g id="dots_decoration" data-name="dots decoration" transform="translate(-1307 -654)" opacity="0.06">
    <circle id="Ellipse_29" data-name="Ellipse 29" cx="9.878" cy="9.878" r="9.878" transform="translate(1307 654)" fill="#fff"/>
    <circle id="Ellipse_30" data-name="Ellipse 30" cx="9.878" cy="9.878" r="9.878" transform="translate(1307 693.513)" fill="#fff"/>
    <circle id="Ellipse_31" data-name="Ellipse 31" cx="9.878" cy="9.878" r="9.878" transform="translate(1307 733.027)" fill="#fff"/>
    <circle id="Ellipse_32" data-name="Ellipse 32" cx="9.878" cy="9.878" r="9.878" transform="translate(1307 772.541)" fill="#fff"/>
    <circle id="Ellipse_33" data-name="Ellipse 33" cx="9.878" cy="9.878" r="9.878" transform="translate(1307 812.054)" fill="#fff"/>
    <circle id="Ellipse_34" data-name="Ellipse 34" cx="9.878" cy="9.878" r="9.878" transform="translate(1307 851.568)" fill="#fff"/>
    <circle id="Ellipse_35" data-name="Ellipse 35" cx="9.878" cy="9.878" r="9.878" transform="translate(1307 891.081)" fill="#fff"/>
    <circle id="Ellipse_36" data-name="Ellipse 36" cx="9.878" cy="9.878" r="9.878" transform="translate(1307 930.595)" fill="#fff"/>
    <circle id="Ellipse_37" data-name="Ellipse 37" cx="9.878" cy="9.878" r="9.878" transform="translate(1307 970.108)" fill="#fff"/>
    <circle id="Ellipse_38" data-name="Ellipse 38" cx="9.878" cy="9.878" r="9.878" transform="translate(1307 1009.622)" fill="#fff"/>
    <circle id="Ellipse_39" data-name="Ellipse 39" cx="9.878" cy="9.878" r="9.878" transform="translate(1346.514 654)" fill="#fff"/>
    <circle id="Ellipse_40" data-name="Ellipse 40" cx="9.878" cy="9.878" r="9.878" transform="translate(1346.514 693.513)" fill="#fff"/>
    <circle id="Ellipse_41" data-name="Ellipse 41" cx="9.878" cy="9.878" r="9.878" transform="translate(1346.514 733.027)" fill="#fff"/>
    <circle id="Ellipse_42" data-name="Ellipse 42" cx="9.878" cy="9.878" r="9.878" transform="translate(1346.514 772.541)" fill="#fff"/>
    <circle id="Ellipse_43" data-name="Ellipse 43" cx="9.878" cy="9.878" r="9.878" transform="translate(1346.514 812.054)" fill="#fff"/>
    <circle id="Ellipse_44" data-name="Ellipse 44" cx="9.878" cy="9.878" r="9.878" transform="translate(1346.514 851.568)" fill="#fff"/>
    <circle id="Ellipse_45" data-name="Ellipse 45" cx="9.878" cy="9.878" r="9.878" transform="translate(1346.514 891.081)" fill="#fff"/>
    <circle id="Ellipse_46" data-name="Ellipse 46" cx="9.878" cy="9.878" r="9.878" transform="translate(1346.514 930.595)" fill="#fff"/>
    <circle id="Ellipse_47" data-name="Ellipse 47" cx="9.878" cy="9.878" r="9.878" transform="translate(1346.514 970.108)" fill="#fff"/>
    <circle id="Ellipse_48" data-name="Ellipse 48" cx="9.878" cy="9.878" r="9.878" transform="translate(1346.514 1009.622)" fill="#fff"/>
    <circle id="Ellipse_49" data-name="Ellipse 49" cx="9.878" cy="9.878" r="9.878" transform="translate(1386.027 654)" fill="#fff"/>
    <circle id="Ellipse_50" data-name="Ellipse 50" cx="9.878" cy="9.878" r="9.878" transform="translate(1386.027 693.513)" fill="#fff"/>
    <circle id="Ellipse_51" data-name="Ellipse 51" cx="9.878" cy="9.878" r="9.878" transform="translate(1386.027 733.027)" fill="#fff"/>
    <circle id="Ellipse_52" data-name="Ellipse 52" cx="9.878" cy="9.878" r="9.878" transform="translate(1386.027 772.541)" fill="#fff"/>
    <circle id="Ellipse_53" data-name="Ellipse 53" cx="9.878" cy="9.878" r="9.878" transform="translate(1386.027 812.054)" fill="#fff"/>
    <circle id="Ellipse_54" data-name="Ellipse 54" cx="9.878" cy="9.878" r="9.878" transform="translate(1386.027 851.568)" fill="#fff"/>
    <circle id="Ellipse_55" data-name="Ellipse 55" cx="9.878" cy="9.878" r="9.878" transform="translate(1386.027 891.081)" fill="#fff"/>
    <circle id="Ellipse_56" data-name="Ellipse 56" cx="9.878" cy="9.878" r="9.878" transform="translate(1386.027 930.595)" fill="#fff"/>
    <circle id="Ellipse_57" data-name="Ellipse 57" cx="9.878" cy="9.878" r="9.878" transform="translate(1386.027 970.108)" fill="#fff"/>
    <circle id="Ellipse_58" data-name="Ellipse 58" cx="9.878" cy="9.878" r="9.878" transform="translate(1386.027 1009.622)" fill="#fff"/>
    <circle id="Ellipse_59" data-name="Ellipse 59" cx="9.878" cy="9.878" r="9.878" transform="translate(1425.541 654)" fill="#fff"/>
    <circle id="Ellipse_60" data-name="Ellipse 60" cx="9.878" cy="9.878" r="9.878" transform="translate(1425.541 693.513)" fill="#fff"/>
    <circle id="Ellipse_61" data-name="Ellipse 61" cx="9.878" cy="9.878" r="9.878" transform="translate(1425.541 733.027)" fill="#fff"/>
    <circle id="Ellipse_62" data-name="Ellipse 62" cx="9.878" cy="9.878" r="9.878" transform="translate(1425.541 772.541)" fill="#fff"/>
    <circle id="Ellipse_63" data-name="Ellipse 63" cx="9.878" cy="9.878" r="9.878" transform="translate(1425.541 812.054)" fill="#fff"/>
    <circle id="Ellipse_64" data-name="Ellipse 64" cx="9.878" cy="9.878" r="9.878" transform="translate(1425.541 851.568)" fill="#fff"/>
    <circle id="Ellipse_65" data-name="Ellipse 65" cx="9.878" cy="9.878" r="9.878" transform="translate(1425.541 891.081)" fill="#fff"/>
    <circle id="Ellipse_66" data-name="Ellipse 66" cx="9.878" cy="9.878" r="9.878" transform="translate(1425.541 930.595)" fill="#fff"/>
    <circle id="Ellipse_67" data-name="Ellipse 67" cx="9.878" cy="9.878" r="9.878" transform="translate(1425.541 970.108)" fill="#fff"/>
    <circle id="Ellipse_68" data-name="Ellipse 68" cx="9.878" cy="9.878" r="9.878" transform="translate(1425.541 1009.622)" fill="#fff"/>
    <circle id="Ellipse_69" data-name="Ellipse 69" cx="9.878" cy="9.878" r="9.878" transform="translate(1465.054 654)" fill="#fff"/>
    <circle id="Ellipse_70" data-name="Ellipse 70" cx="9.878" cy="9.878" r="9.878" transform="translate(1465.054 693.513)" fill="#fff"/>
    <circle id="Ellipse_71" data-name="Ellipse 71" cx="9.878" cy="9.878" r="9.878" transform="translate(1465.054 733.027)" fill="#fff"/>
    <circle id="Ellipse_72" data-name="Ellipse 72" cx="9.878" cy="9.878" r="9.878" transform="translate(1465.054 772.541)" fill="#fff"/>
    <circle id="Ellipse_73" data-name="Ellipse 73" cx="9.878" cy="9.878" r="9.878" transform="translate(1465.054 812.054)" fill="#fff"/>
    <circle id="Ellipse_74" data-name="Ellipse 74" cx="9.878" cy="9.878" r="9.878" transform="translate(1465.054 851.568)" fill="#fff"/>
    <circle id="Ellipse_75" data-name="Ellipse 75" cx="9.878" cy="9.878" r="9.878" transform="translate(1465.054 891.081)" fill="#fff"/>
    <circle id="Ellipse_76" data-name="Ellipse 76" cx="9.878" cy="9.878" r="9.878" transform="translate(1465.054 930.595)" fill="#fff"/>
    <circle id="Ellipse_77" data-name="Ellipse 77" cx="9.878" cy="9.878" r="9.878" transform="translate(1465.054 970.108)" fill="#fff"/>
    <circle id="Ellipse_78" data-name="Ellipse 78" cx="9.878" cy="9.878" r="9.878" transform="translate(1465.054 1009.622)" fill="#fff"/>
    <circle id="Ellipse_79" data-name="Ellipse 79" cx="9.878" cy="9.878" r="9.878" transform="translate(1504.568 654)" fill="#fff"/>
    <circle id="Ellipse_80" data-name="Ellipse 80" cx="9.878" cy="9.878" r="9.878" transform="translate(1504.568 693.513)" fill="#fff"/>
    <circle id="Ellipse_81" data-name="Ellipse 81" cx="9.878" cy="9.878" r="9.878" transform="translate(1504.568 733.027)" fill="#fff"/>
    <circle id="Ellipse_82" data-name="Ellipse 82" cx="9.878" cy="9.878" r="9.878" transform="translate(1504.568 772.541)" fill="#fff"/>
    <circle id="Ellipse_83" data-name="Ellipse 83" cx="9.878" cy="9.878" r="9.878" transform="translate(1504.568 812.054)" fill="#fff"/>
    <circle id="Ellipse_84" data-name="Ellipse 84" cx="9.878" cy="9.878" r="9.878" transform="translate(1504.568 851.568)" fill="#fff"/>
    <circle id="Ellipse_85" data-name="Ellipse 85" cx="9.878" cy="9.878" r="9.878" transform="translate(1504.568 891.081)" fill="#fff"/>
    <circle id="Ellipse_86" data-name="Ellipse 86" cx="9.878" cy="9.878" r="9.878" transform="translate(1504.568 930.595)" fill="#fff"/>
    <circle id="Ellipse_87" data-name="Ellipse 87" cx="9.878" cy="9.878" r="9.878" transform="translate(1504.568 970.108)" fill="#fff"/>
    <circle id="Ellipse_88" data-name="Ellipse 88" cx="9.878" cy="9.878" r="9.878" transform="translate(1504.568 1009.622)" fill="#fff"/>
    <circle id="Ellipse_89" data-name="Ellipse 89" cx="9.878" cy="9.878" r="9.878" transform="translate(1544.081 654)" fill="#fff"/>
    <circle id="Ellipse_90" data-name="Ellipse 90" cx="9.878" cy="9.878" r="9.878" transform="translate(1544.081 693.513)" fill="#fff"/>
    <circle id="Ellipse_91" data-name="Ellipse 91" cx="9.878" cy="9.878" r="9.878" transform="translate(1544.081 733.027)" fill="#fff"/>
    <circle id="Ellipse_92" data-name="Ellipse 92" cx="9.878" cy="9.878" r="9.878" transform="translate(1544.081 772.541)" fill="#fff"/>
    <circle id="Ellipse_93" data-name="Ellipse 93" cx="9.878" cy="9.878" r="9.878" transform="translate(1544.081 812.054)" fill="#fff"/>
    <circle id="Ellipse_94" data-name="Ellipse 94" cx="9.878" cy="9.878" r="9.878" transform="translate(1544.081 851.568)" fill="#fff"/>
    <circle id="Ellipse_95" data-name="Ellipse 95" cx="9.878" cy="9.878" r="9.878" transform="translate(1544.081 891.081)" fill="#fff"/>
    <circle id="Ellipse_96" data-name="Ellipse 96" cx="9.878" cy="9.878" r="9.878" transform="translate(1544.081 930.595)" fill="#fff"/>
    <circle id="Ellipse_97" data-name="Ellipse 97" cx="9.878" cy="9.878" r="9.878" transform="translate(1544.081 970.108)" fill="#fff"/>
    <circle id="Ellipse_98" data-name="Ellipse 98" cx="9.878" cy="9.878" r="9.878" transform="translate(1544.081 1009.622)" fill="#fff"/>
    <circle id="Ellipse_99" data-name="Ellipse 99" cx="9.878" cy="9.878" r="9.878" transform="translate(1583.595 654)" fill="#fff"/>
    <circle id="Ellipse_100" data-name="Ellipse 100" cx="9.878" cy="9.878" r="9.878" transform="translate(1583.595 693.513)" fill="#fff"/>
    <circle id="Ellipse_101" data-name="Ellipse 101" cx="9.878" cy="9.878" r="9.878" transform="translate(1583.595 733.027)" fill="#fff"/>
    <circle id="Ellipse_102" data-name="Ellipse 102" cx="9.878" cy="9.878" r="9.878" transform="translate(1583.595 772.541)" fill="#fff"/>
    <circle id="Ellipse_103" data-name="Ellipse 103" cx="9.878" cy="9.878" r="9.878" transform="translate(1583.595 812.054)" fill="#fff"/>
    <circle id="Ellipse_104" data-name="Ellipse 104" cx="9.878" cy="9.878" r="9.878" transform="translate(1583.595 851.568)" fill="#fff"/>
    <circle id="Ellipse_105" data-name="Ellipse 105" cx="9.878" cy="9.878" r="9.878" transform="translate(1583.595 891.081)" fill="#fff"/>
    <circle id="Ellipse_106" data-name="Ellipse 106" cx="9.878" cy="9.878" r="9.878" transform="translate(1583.595 930.595)" fill="#fff"/>
    <circle id="Ellipse_107" data-name="Ellipse 107" cx="9.878" cy="9.878" r="9.878" transform="translate(1583.595 970.108)" fill="#fff"/>
    <circle id="Ellipse_108" data-name="Ellipse 108" cx="9.878" cy="9.878" r="9.878" transform="translate(1583.595 1009.622)" fill="#fff"/>
    <circle id="Ellipse_109" data-name="Ellipse 109" cx="9.878" cy="9.878" r="9.878" transform="translate(1623.108 654)" fill="#fff"/>
    <circle id="Ellipse_110" data-name="Ellipse 110" cx="9.878" cy="9.878" r="9.878" transform="translate(1623.108 693.513)" fill="#fff"/>
    <circle id="Ellipse_111" data-name="Ellipse 111" cx="9.878" cy="9.878" r="9.878" transform="translate(1623.108 733.027)" fill="#fff"/>
    <circle id="Ellipse_112" data-name="Ellipse 112" cx="9.878" cy="9.878" r="9.878" transform="translate(1623.108 772.541)" fill="#fff"/>
    <circle id="Ellipse_113" data-name="Ellipse 113" cx="9.878" cy="9.878" r="9.878" transform="translate(1623.108 812.054)" fill="#fff"/>
    <circle id="Ellipse_114" data-name="Ellipse 114" cx="9.878" cy="9.878" r="9.878" transform="translate(1623.108 851.568)" fill="#fff"/>
    <circle id="Ellipse_115" data-name="Ellipse 115" cx="9.878" cy="9.878" r="9.878" transform="translate(1623.108 891.081)" fill="#fff"/>
    <circle id="Ellipse_116" data-name="Ellipse 116" cx="9.878" cy="9.878" r="9.878" transform="translate(1623.108 930.595)" fill="#fff"/>
    <circle id="Ellipse_117" data-name="Ellipse 117" cx="9.878" cy="9.878" r="9.878" transform="translate(1623.108 970.108)" fill="#fff"/>
    <circle id="Ellipse_118" data-name="Ellipse 118" cx="9.878" cy="9.878" r="9.878" transform="translate(1623.108 1009.622)" fill="#fff"/>
    <circle id="Ellipse_119" data-name="Ellipse 119" cx="9.878" cy="9.878" r="9.878" transform="translate(1662.622 654)" fill="#fff"/>
    <circle id="Ellipse_120" data-name="Ellipse 120" cx="9.878" cy="9.878" r="9.878" transform="translate(1662.622 693.513)" fill="#fff"/>
    <circle id="Ellipse_121" data-name="Ellipse 121" cx="9.878" cy="9.878" r="9.878" transform="translate(1662.622 733.027)" fill="#fff"/>
    <circle id="Ellipse_122" data-name="Ellipse 122" cx="9.878" cy="9.878" r="9.878" transform="translate(1662.622 772.541)" fill="#fff"/>
    <circle id="Ellipse_123" data-name="Ellipse 123" cx="9.878" cy="9.878" r="9.878" transform="translate(1662.622 812.054)" fill="#fff"/>
    <circle id="Ellipse_124" data-name="Ellipse 124" cx="9.878" cy="9.878" r="9.878" transform="translate(1662.622 851.568)" fill="#fff"/>
    <circle id="Ellipse_125" data-name="Ellipse 125" cx="9.878" cy="9.878" r="9.878" transform="translate(1662.622 891.081)" fill="#fff"/>
    <circle id="Ellipse_126" data-name="Ellipse 126" cx="9.878" cy="9.878" r="9.878" transform="translate(1662.622 930.595)" fill="#fff"/>
    <circle id="Ellipse_127" data-name="Ellipse 127" cx="9.878" cy="9.878" r="9.878" transform="translate(1662.622 970.108)" fill="#fff"/>
    <circle id="Ellipse_128" data-name="Ellipse 128" cx="9.878" cy="9.878" r="9.878" transform="translate(1662.622 1009.622)" fill="#fff"/>
    <circle id="Ellipse_129" data-name="Ellipse 129" cx="9.878" cy="9.878" r="9.878" transform="translate(1702.135 654)" fill="#fff"/>
    <circle id="Ellipse_130" data-name="Ellipse 130" cx="9.878" cy="9.878" r="9.878" transform="translate(1702.135 693.513)" fill="#fff"/>
    <circle id="Ellipse_131" data-name="Ellipse 131" cx="9.878" cy="9.878" r="9.878" transform="translate(1702.135 733.027)" fill="#fff"/>
    <circle id="Ellipse_132" data-name="Ellipse 132" cx="9.878" cy="9.878" r="9.878" transform="translate(1702.135 772.541)" fill="#fff"/>
    <circle id="Ellipse_133" data-name="Ellipse 133" cx="9.878" cy="9.878" r="9.878" transform="translate(1702.135 812.054)" fill="#fff"/>
    <circle id="Ellipse_134" data-name="Ellipse 134" cx="9.878" cy="9.878" r="9.878" transform="translate(1702.135 851.568)" fill="#fff"/>
    <circle id="Ellipse_135" data-name="Ellipse 135" cx="9.878" cy="9.878" r="9.878" transform="translate(1702.135 891.081)" fill="#fff"/>
    <circle id="Ellipse_136" data-name="Ellipse 136" cx="9.878" cy="9.878" r="9.878" transform="translate(1702.135 930.595)" fill="#fff"/>
    <circle id="Ellipse_137" data-name="Ellipse 137" cx="9.878" cy="9.878" r="9.878" transform="translate(1702.135 970.108)" fill="#fff"/>
    <circle id="Ellipse_138" data-name="Ellipse 138" cx="9.878" cy="9.878" r="9.878" transform="translate(1702.135 1009.622)" fill="#fff"/>
    <circle id="Ellipse_139" data-name="Ellipse 139" cx="9.878" cy="9.878" r="9.878" transform="translate(1741.649 654)" fill="#fff"/>
    <circle id="Ellipse_140" data-name="Ellipse 140" cx="9.878" cy="9.878" r="9.878" transform="translate(1741.649 693.513)" fill="#fff"/>
    <circle id="Ellipse_141" data-name="Ellipse 141" cx="9.878" cy="9.878" r="9.878" transform="translate(1741.649 733.027)" fill="#fff"/>
    <circle id="Ellipse_142" data-name="Ellipse 142" cx="9.878" cy="9.878" r="9.878" transform="translate(1741.649 772.541)" fill="#fff"/>
    <circle id="Ellipse_143" data-name="Ellipse 143" cx="9.878" cy="9.878" r="9.878" transform="translate(1741.649 812.054)" fill="#fff"/>
    <circle id="Ellipse_144" data-name="Ellipse 144" cx="9.878" cy="9.878" r="9.878" transform="translate(1741.649 851.568)" fill="#fff"/>
    <circle id="Ellipse_145" data-name="Ellipse 145" cx="9.878" cy="9.878" r="9.878" transform="translate(1741.649 891.081)" fill="#fff"/>
    <circle id="Ellipse_146" data-name="Ellipse 146" cx="9.878" cy="9.878" r="9.878" transform="translate(1741.649 930.595)" fill="#fff"/>
    <circle id="Ellipse_147" data-name="Ellipse 147" cx="9.878" cy="9.878" r="9.878" transform="translate(1741.649 970.108)" fill="#fff"/>
    <circle id="Ellipse_148" data-name="Ellipse 148" cx="9.878" cy="9.878" r="9.878" transform="translate(1741.649 1009.622)" fill="#fff"/>
    <circle id="Ellipse_149" data-name="Ellipse 149" cx="9.878" cy="9.878" r="9.878" transform="translate(1781.162 654)" fill="#fff"/>
    <circle id="Ellipse_150" data-name="Ellipse 150" cx="9.878" cy="9.878" r="9.878" transform="translate(1781.162 693.513)" fill="#fff"/>
    <circle id="Ellipse_151" data-name="Ellipse 151" cx="9.878" cy="9.878" r="9.878" transform="translate(1781.162 733.027)" fill="#fff"/>
    <circle id="Ellipse_152" data-name="Ellipse 152" cx="9.878" cy="9.878" r="9.878" transform="translate(1781.162 772.541)" fill="#fff"/>
    <circle id="Ellipse_153" data-name="Ellipse 153" cx="9.878" cy="9.878" r="9.878" transform="translate(1781.162 812.054)" fill="#fff"/>
    <circle id="Ellipse_154" data-name="Ellipse 154" cx="9.878" cy="9.878" r="9.878" transform="translate(1781.162 851.568)" fill="#fff"/>
    <circle id="Ellipse_155" data-name="Ellipse 155" cx="9.878" cy="9.878" r="9.878" transform="translate(1781.162 891.081)" fill="#fff"/>
    <circle id="Ellipse_156" data-name="Ellipse 156" cx="9.878" cy="9.878" r="9.878" transform="translate(1781.162 930.595)" fill="#fff"/>
    <circle id="Ellipse_157" data-name="Ellipse 157" cx="9.878" cy="9.878" r="9.878" transform="translate(1781.162 970.108)" fill="#fff"/>
    <circle id="Ellipse_158" data-name="Ellipse 158" cx="9.878" cy="9.878" r="9.878" transform="translate(1781.162 1009.622)" fill="#fff"/>
    <circle id="Ellipse_159" data-name="Ellipse 159" cx="9.878" cy="9.878" r="9.878" transform="translate(1820.676 654)" fill="#fff"/>
    <circle id="Ellipse_160" data-name="Ellipse 160" cx="9.878" cy="9.878" r="9.878" transform="translate(1820.676 693.513)" fill="#fff"/>
    <circle id="Ellipse_161" data-name="Ellipse 161" cx="9.878" cy="9.878" r="9.878" transform="translate(1820.676 733.027)" fill="#fff"/>
    <circle id="Ellipse_162" data-name="Ellipse 162" cx="9.878" cy="9.878" r="9.878" transform="translate(1820.676 772.541)" fill="#fff"/>
    <circle id="Ellipse_163" data-name="Ellipse 163" cx="9.878" cy="9.878" r="9.878" transform="translate(1820.676 812.054)" fill="#fff"/>
    <circle id="Ellipse_164" data-name="Ellipse 164" cx="9.878" cy="9.878" r="9.878" transform="translate(1820.676 851.568)" fill="#fff"/>
    <circle id="Ellipse_165" data-name="Ellipse 165" cx="9.878" cy="9.878" r="9.878" transform="translate(1820.676 891.081)" fill="#fff"/>
    <circle id="Ellipse_166" data-name="Ellipse 166" cx="9.878" cy="9.878" r="9.878" transform="translate(1820.676 930.595)" fill="#fff"/>
    <circle id="Ellipse_167" data-name="Ellipse 167" cx="9.878" cy="9.878" r="9.878" transform="translate(1820.676 970.108)" fill="#fff"/>
    <circle id="Ellipse_168" data-name="Ellipse 168" cx="9.878" cy="9.878" r="9.878" transform="translate(1820.676 1009.622)" fill="#fff"/>
    <circle id="Ellipse_169" data-name="Ellipse 169" cx="9.878" cy="9.878" r="9.878" transform="translate(1860.189 654)" fill="#fff"/>
    <circle id="Ellipse_170" data-name="Ellipse 170" cx="9.878" cy="9.878" r="9.878" transform="translate(1860.189 693.513)" fill="#fff"/>
    <circle id="Ellipse_171" data-name="Ellipse 171" cx="9.878" cy="9.878" r="9.878" transform="translate(1860.189 733.027)" fill="#fff"/>
    <circle id="Ellipse_172" data-name="Ellipse 172" cx="9.878" cy="9.878" r="9.878" transform="translate(1860.189 772.541)" fill="#fff"/>
    <circle id="Ellipse_173" data-name="Ellipse 173" cx="9.878" cy="9.878" r="9.878" transform="translate(1860.189 812.054)" fill="#fff"/>
    <circle id="Ellipse_174" data-name="Ellipse 174" cx="9.878" cy="9.878" r="9.878" transform="translate(1860.189 851.568)" fill="#fff"/>
    <circle id="Ellipse_175" data-name="Ellipse 175" cx="9.878" cy="9.878" r="9.878" transform="translate(1860.189 891.081)" fill="#fff"/>
    <circle id="Ellipse_176" data-name="Ellipse 176" cx="9.878" cy="9.878" r="9.878" transform="translate(1860.189 930.595)" fill="#fff"/>
    <circle id="Ellipse_177" data-name="Ellipse 177" cx="9.878" cy="9.878" r="9.878" transform="translate(1860.189 970.108)" fill="#fff"/>
    <circle id="Ellipse_178" data-name="Ellipse 178" cx="9.878" cy="9.878" r="9.878" transform="translate(1860.189 1009.622)" fill="#fff"/>
    <circle id="Ellipse_179" data-name="Ellipse 179" cx="9.878" cy="9.878" r="9.878" transform="translate(1899.703 654)" fill="#fff"/>
    <circle id="Ellipse_180" data-name="Ellipse 180" cx="9.878" cy="9.878" r="9.878" transform="translate(1899.703 693.513)" fill="#fff"/>
    <circle id="Ellipse_181" data-name="Ellipse 181" cx="9.878" cy="9.878" r="9.878" transform="translate(1899.703 733.027)" fill="#fff"/>
    <circle id="Ellipse_182" data-name="Ellipse 182" cx="9.878" cy="9.878" r="9.878" transform="translate(1899.703 772.541)" fill="#fff"/>
    <circle id="Ellipse_183" data-name="Ellipse 183" cx="9.878" cy="9.878" r="9.878" transform="translate(1899.703 812.054)" fill="#fff"/>
    <circle id="Ellipse_184" data-name="Ellipse 184" cx="9.878" cy="9.878" r="9.878" transform="translate(1899.703 851.568)" fill="#fff"/>
    <circle id="Ellipse_185" data-name="Ellipse 185" cx="9.878" cy="9.878" r="9.878" transform="translate(1899.703 891.081)" fill="#fff"/>
    <circle id="Ellipse_186" data-name="Ellipse 186" cx="9.878" cy="9.878" r="9.878" transform="translate(1899.703 930.595)" fill="#fff"/>
    <circle id="Ellipse_187" data-name="Ellipse 187" cx="9.878" cy="9.878" r="9.878" transform="translate(1899.703 970.108)" fill="#fff"/>
    <circle id="Ellipse_188" data-name="Ellipse 188" cx="9.878" cy="9.878" r="9.878" transform="translate(1899.703 1009.622)" fill="#fff"/>
    <circle id="Ellipse_189" data-name="Ellipse 189" cx="9.878" cy="9.878" r="9.878" transform="translate(1939.216 654)" fill="#fff"/>
    <circle id="Ellipse_190" data-name="Ellipse 190" cx="9.878" cy="9.878" r="9.878" transform="translate(1939.216 693.513)" fill="#fff"/>
    <circle id="Ellipse_191" data-name="Ellipse 191" cx="9.878" cy="9.878" r="9.878" transform="translate(1939.216 733.027)" fill="#fff"/>
    <circle id="Ellipse_192" data-name="Ellipse 192" cx="9.878" cy="9.878" r="9.878" transform="translate(1939.216 772.541)" fill="#fff"/>
    <circle id="Ellipse_193" data-name="Ellipse 193" cx="9.878" cy="9.878" r="9.878" transform="translate(1939.216 812.054)" fill="#fff"/>
    <circle id="Ellipse_194" data-name="Ellipse 194" cx="9.878" cy="9.878" r="9.878" transform="translate(1939.216 851.568)" fill="#fff"/>
    <circle id="Ellipse_195" data-name="Ellipse 195" cx="9.878" cy="9.878" r="9.878" transform="translate(1939.216 891.081)" fill="#fff"/>
    <circle id="Ellipse_196" data-name="Ellipse 196" cx="9.878" cy="9.878" r="9.878" transform="translate(1939.216 930.595)" fill="#fff"/>
    <circle id="Ellipse_197" data-name="Ellipse 197" cx="9.878" cy="9.878" r="9.878" transform="translate(1939.216 970.108)" fill="#fff"/>
    <circle id="Ellipse_198" data-name="Ellipse 198" cx="9.878" cy="9.878" r="9.878" transform="translate(1939.216 1009.622)" fill="#fff"/>
    <circle id="Ellipse_199" data-name="Ellipse 199" cx="9.878" cy="9.878" r="9.878" transform="translate(1978.73 654)" fill="#fff"/>
    <circle id="Ellipse_200" data-name="Ellipse 200" cx="9.878" cy="9.878" r="9.878" transform="translate(1978.73 693.513)" fill="#fff"/>
    <circle id="Ellipse_201" data-name="Ellipse 201" cx="9.878" cy="9.878" r="9.878" transform="translate(1978.73 733.027)" fill="#fff"/>
    <circle id="Ellipse_202" data-name="Ellipse 202" cx="9.878" cy="9.878" r="9.878" transform="translate(1978.73 772.541)" fill="#fff"/>
    <circle id="Ellipse_203" data-name="Ellipse 203" cx="9.878" cy="9.878" r="9.878" transform="translate(1978.73 812.054)" fill="#fff"/>
    <circle id="Ellipse_204" data-name="Ellipse 204" cx="9.878" cy="9.878" r="9.878" transform="translate(1978.73 851.568)" fill="#fff"/>
    <circle id="Ellipse_205" data-name="Ellipse 205" cx="9.878" cy="9.878" r="9.878" transform="translate(1978.73 891.081)" fill="#fff"/>
    <circle id="Ellipse_206" data-name="Ellipse 206" cx="9.878" cy="9.878" r="9.878" transform="translate(1978.73 930.595)" fill="#fff"/>
    <circle id="Ellipse_207" data-name="Ellipse 207" cx="9.878" cy="9.878" r="9.878" transform="translate(1978.73 970.108)" fill="#fff"/>
    <circle id="Ellipse_208" data-name="Ellipse 208" cx="9.878" cy="9.878" r="9.878" transform="translate(1978.73 1009.622)" fill="#fff"/>
    <circle id="Ellipse_209" data-name="Ellipse 209" cx="9.878" cy="9.878" r="9.878" transform="translate(2018.243 654)" fill="#fff"/>
    <circle id="Ellipse_210" data-name="Ellipse 210" cx="9.878" cy="9.878" r="9.878" transform="translate(2018.243 693.513)" fill="#fff"/>
    <circle id="Ellipse_211" data-name="Ellipse 211" cx="9.878" cy="9.878" r="9.878" transform="translate(2018.243 733.027)" fill="#fff"/>
    <circle id="Ellipse_212" data-name="Ellipse 212" cx="9.878" cy="9.878" r="9.878" transform="translate(2018.243 772.541)" fill="#fff"/>
    <circle id="Ellipse_213" data-name="Ellipse 213" cx="9.878" cy="9.878" r="9.878" transform="translate(2018.243 812.054)" fill="#fff"/>
    <circle id="Ellipse_214" data-name="Ellipse 214" cx="9.878" cy="9.878" r="9.878" transform="translate(2018.243 851.568)" fill="#fff"/>
    <circle id="Ellipse_215" data-name="Ellipse 215" cx="9.878" cy="9.878" r="9.878" transform="translate(2018.243 891.081)" fill="#fff"/>
    <circle id="Ellipse_216" data-name="Ellipse 216" cx="9.878" cy="9.878" r="9.878" transform="translate(2018.243 930.595)" fill="#fff"/>
    <circle id="Ellipse_217" data-name="Ellipse 217" cx="9.878" cy="9.878" r="9.878" transform="translate(2018.243 970.108)" fill="#fff"/>
    <circle id="Ellipse_218" data-name="Ellipse 218" cx="9.878" cy="9.878" r="9.878" transform="translate(2018.243 1009.622)" fill="#fff"/>
  </g>
</svg>
