<svg xmlns="http://www.w3.org/2000/svg" xmlns:xlink="http://www.w3.org/1999/xlink" width="500" height="613.579" viewBox="0 0 500 613.579">
  <defs>
    <linearGradient id="linear-gradient" x1="0.5" x2="0.5" y2="1" gradientUnits="objectBoundingBox">
      <stop offset="0" stop-color="#df0e62"/>
      <stop offset="1" stop-color="#21174a"/>
    </linearGradient>
  </defs>
  <path id="news-ln-after" d="M264.823,346.439a403.745,403.745,0,0,1-53.371-3.519,372.32,372.32,0,0,1-49.71-10.093,328.071,328.071,0,0,1-44.984-15.971A274.347,274.347,0,0,1,77.565,295.7a218.351,218.351,0,0,1-32.337-25.636,168.868,168.868,0,0,1-24.416-29.424,140.767,140.767,0,0,1-8.905-15.915,127.346,127.346,0,0,1-6.526-16.6,118.9,118.9,0,0,1-4.013-17.2,115.39,115.39,0,0,1,0-35.421,118.9,118.9,0,0,1,4.013-17.2,127.345,127.345,0,0,1,6.526-16.6,140.766,140.766,0,0,1,8.905-15.915A168.866,168.866,0,0,1,45.228,76.371,218.347,218.347,0,0,1,77.565,50.735a274.337,274.337,0,0,1,39.193-21.152,328.068,328.068,0,0,1,44.984-15.971,372.33,372.33,0,0,1,49.71-10.093,406.462,406.462,0,0,1,106.742,0A372.318,372.318,0,0,1,367.9,13.612a328.068,328.068,0,0,1,44.984,15.971,274.341,274.341,0,0,1,39.193,21.152,218.339,218.339,0,0,1,32.337,25.636,168.866,168.866,0,0,1,24.416,29.424,140.778,140.778,0,0,1,8.905,15.915,127.376,127.376,0,0,1,6.526,16.6,118.911,118.911,0,0,1,4.013,17.2,115.391,115.391,0,0,1,0,35.421,118.911,118.911,0,0,1-4.013,17.2,127.376,127.376,0,0,1-6.526,16.6,140.79,140.79,0,0,1-8.905,15.915,168.863,168.863,0,0,1-24.416,29.424A218.343,218.343,0,0,1,452.081,295.7a274.351,274.351,0,0,1-39.193,21.152A328.073,328.073,0,0,1,367.9,332.827a372.308,372.308,0,0,1-49.71,10.093A403.746,403.746,0,0,1,264.823,346.439ZM310.2,14.114c-48.795,0-94.669,10.611-129.171,29.877s-53.5,44.883-53.5,72.13,19,52.863,53.5,72.13S261.41,218.129,310.2,218.129s94.669-10.611,129.171-29.877,53.5-44.883,53.5-72.13-19-52.863-53.5-72.13S359,14.114,310.2,14.114Z" transform="translate(500 112.79) rotate(109)" opacity="0.4" fill="url(#linear-gradient)"/>
</svg>
