<?xml version="1.0" encoding="utf-8"?>
<!-- Generator: Adobe Illustrator 22.1.0, SVG Export Plug-In . SVG Version: 6.00 Build 0)  -->
<svg version="1.1" id="Layer_1" xmlns="http://www.w3.org/2000/svg" xmlns:xlink="http://www.w3.org/1999/xlink" x="0px" y="0px"
	 viewBox="0 0 1920 258.7" style="enable-background:new 0 0 1920 258.7;" xml:space="preserve">
<style type="text/css">
	.st0{fill:#DF0E62;}
</style>
<path id="white-cut" class="st0" d="M1920,258.7H0V0c283.3,153.5,615.2,234.7,960,234.7c28.9,0,58.1-0.6,86.8-1.7
	c28.5-1.1,57.3-2.9,85.7-5.1c28.1-2.2,56.6-5.1,84.5-8.4c27.7-3.3,55.7-7.2,83.2-11.7c27.3-4.4,54.8-9.4,81.8-14.8
	c26.8-5.4,53.8-11.4,80.3-17.9c26.3-6.4,52.8-13.4,78.7-20.9c25.8-7.4,51.7-15.4,77-23.8c26.5-8.8,53.1-18.2,79-28.1
	c25.8-9.8,51.6-20.3,76.8-31.1c25.1-10.8,50.1-22.3,74.4-34.1c24.3-11.8,48.5-24.2,72-36.9L1920,258.7L1920,258.7z"/>
</svg>
