<svg xmlns="http://www.w3.org/2000/svg" width="25" height="26.52" viewBox="0 0 25 26.52">
  <g id="share" transform="translate(-13.8)">
    <path id="Path_76" data-name="Path 76" d="M34.053,17.037a4.746,4.746,0,0,0-3.756,1.85l-7.285-4.069a4.757,4.757,0,0,0,.264-1.564,4.653,4.653,0,0,0-.27-1.569l7.28-4.064a4.736,4.736,0,1,0-.98-2.88,4.629,4.629,0,0,0,.27,1.569L22.3,10.374a4.737,4.737,0,1,0,.011,5.754l7.28,4.069a4.739,4.739,0,1,0,4.46-3.161Zm0-15.545A3.254,3.254,0,1,1,30.8,4.747,3.257,3.257,0,0,1,34.053,1.492ZM18.547,16.509A3.254,3.254,0,1,1,21.8,13.254,3.257,3.257,0,0,1,18.547,16.509Zm15.507,8.519a3.254,3.254,0,1,1,3.254-3.254A3.257,3.257,0,0,1,34.053,25.028Z" fill="#127681"/>
  </g>
</svg>
