<svg xmlns="http://www.w3.org/2000/svg" width="1092" height="810" viewBox="0 0 1092 810">
  <path id="social-after" d="M546-59c-18.625,0-37.407-.7-55.826-2.091-18.152-1.367-36.392-3.432-54.213-6.137-17.59-2.67-35.2-6.028-52.326-9.98-16.937-3.907-33.815-8.49-50.164-13.619a625.563,625.563,0,0,1-92.746-37.341,548,548,0,0,1-80.807-49.454,464.606,464.606,0,0,1-66.672-59.939A406.649,406.649,0,0,1,65.9-270.953a372.369,372.369,0,0,1-22.992-35.4,343.954,343.954,0,0,1-18.36-37.21,322.67,322.67,0,0,1-13.454-38.813,309.779,309.779,0,0,1-8.274-40.213A306.346,306.346,0,0,1,0-464a306.345,306.345,0,0,1,2.819-41.409,309.776,309.776,0,0,1,8.274-40.213,322.636,322.636,0,0,1,13.454-38.813,343.957,343.957,0,0,1,18.36-37.21,372.376,372.376,0,0,1,22.992-35.4A406.659,406.659,0,0,1,93.248-690.44a464.594,464.594,0,0,1,66.672-59.939,548.005,548.005,0,0,1,80.807-49.454,625.554,625.554,0,0,1,92.746-37.341c16.347-5.129,33.225-9.711,50.164-13.619,17.132-3.952,34.737-7.31,52.326-9.98,17.822-2.705,36.062-4.77,54.213-6.137C508.593-868.3,527.376-869,546-869s37.407.7,55.825,2.091c18.151,1.367,36.391,3.432,54.213,6.137,17.589,2.67,35.194,6.027,52.326,9.98,16.939,3.908,33.817,8.49,50.164,13.619a625.56,625.56,0,0,1,92.746,37.341,548.016,548.016,0,0,1,80.806,49.454,464.593,464.593,0,0,1,66.672,59.939,406.728,406.728,0,0,1,27.349,33.392,372.384,372.384,0,0,1,22.992,35.4,343.943,343.943,0,0,1,18.36,37.21,322.642,322.642,0,0,1,13.454,38.813,309.768,309.768,0,0,1,8.274,40.213A306.361,306.361,0,0,1,1092-464a306.362,306.362,0,0,1-2.819,41.409,309.77,309.77,0,0,1-8.274,40.213,322.675,322.675,0,0,1-13.454,38.813,343.94,343.94,0,0,1-18.36,37.21,372.377,372.377,0,0,1-22.992,35.4,406.728,406.728,0,0,1-27.349,33.392,464.6,464.6,0,0,1-66.672,59.939,548.013,548.013,0,0,1-80.806,49.454,625.564,625.564,0,0,1-92.746,37.341C742.179-85.7,725.3-81.116,708.364-77.208c-17.131,3.952-34.736,7.31-52.326,9.98-17.821,2.7-36.061,4.77-54.213,6.137C583.407-59.7,564.625-59,546-59ZM479-693c-58.859,0-115.958,8.064-169.711,23.968a517.387,517.387,0,0,0-74.061,28.121A443.146,443.146,0,0,0,170.7-603.667a364.55,364.55,0,0,0-53.239,45.139,293.872,293.872,0,0,0-40.2,51.809C54.528-469.118,43-429.174,43-388s11.528,81.118,34.263,118.72a293.87,293.87,0,0,0,40.2,51.809A364.549,364.549,0,0,0,170.7-172.332a443.143,443.143,0,0,0,64.527,37.243,517.388,517.388,0,0,0,74.061,28.121C363.042-91.064,420.141-83,479-83s115.958-8.064,169.711-23.968a517.4,517.4,0,0,0,74.061-28.121A443.127,443.127,0,0,0,787.3-172.332a364.555,364.555,0,0,0,53.24-45.139,293.888,293.888,0,0,0,40.2-51.809C903.473-306.882,915-346.825,915-388s-11.528-81.118-34.263-118.72a293.888,293.888,0,0,0-40.2-51.809,364.555,364.555,0,0,0-53.24-45.139,443.132,443.132,0,0,0-64.527-37.243,517.4,517.4,0,0,0-74.061-28.121C594.958-684.936,537.859-693,479-693Z" transform="translate(0 869)" fill="#fff" opacity="0.48"/>
</svg>
