<svg xmlns="http://www.w3.org/2000/svg" width="898" height="966.301" viewBox="0 0 898 966.301">
  <path id="social-before" d="M419.559,492.1a712.42,712.42,0,0,1-84.556-5,650.124,650.124,0,0,1-78.756-14.337,560.572,560.572,0,0,1-71.268-22.686,452.8,452.8,0,0,1-62.094-30.044,342.738,342.738,0,0,1-51.232-36.414,247.887,247.887,0,0,1-38.683-41.795A181.554,181.554,0,0,1,8.524,295.636a154.349,154.349,0,0,1-6.358-24.43,147.169,147.169,0,0,1,0-50.314,154.349,154.349,0,0,1,6.358-24.43,181.555,181.555,0,0,1,24.447-46.186A247.9,247.9,0,0,1,71.654,108.48a342.724,342.724,0,0,1,51.232-36.414A452.811,452.811,0,0,1,184.98,42.021a560.569,560.569,0,0,1,71.268-22.686A650.141,650.141,0,0,1,335,5,717.643,717.643,0,0,1,504.115,5a650.143,650.143,0,0,1,78.756,14.337,560.574,560.574,0,0,1,71.268,22.686,452.822,452.822,0,0,1,62.094,30.045,342.716,342.716,0,0,1,51.232,36.414,247.9,247.9,0,0,1,38.683,41.795A181.555,181.555,0,0,1,830.6,196.461a154.348,154.348,0,0,1,6.358,24.43,147.171,147.171,0,0,1,0,50.314,154.346,154.346,0,0,1-6.358,24.43,181.554,181.554,0,0,1-24.447,46.186,247.9,247.9,0,0,1-38.683,41.795,342.719,342.719,0,0,1-51.232,36.414,452.8,452.8,0,0,1-62.094,30.044,560.574,560.574,0,0,1-71.268,22.686A650.127,650.127,0,0,1,504.115,487.1,712.424,712.424,0,0,1,419.559,492.1ZM381.906,10.728C292.416,10.728,208.281,30,145,65S46.873,146.53,46.873,196.024,81.722,292.05,145,327.048s147.414,54.272,236.9,54.272,173.625-19.274,236.9-54.272,98.129-81.53,98.129-131.024S682.09,100,618.81,65,471.4,10.728,381.906,10.728Z" transform="matrix(-0.602, 0.799, -0.799, -0.602, 898, 296.15)" fill="#fff" opacity="0.48"/>
</svg>
