<svg xmlns="http://www.w3.org/2000/svg" width="1920" height="258.654" viewBox="0 0 1920 258.654">
  <path id="white-cut" d="M2660,2700H740V2441.347C1023.269,2594.858,1355.231,2676,1700,2676c28.865,0,58.065-.579,86.79-1.722,28.516-1.134,57.34-2.854,85.673-5.113,28.135-2.243,56.552-5.078,84.461-8.426,27.719-3.325,55.7-7.247,83.158-11.659,27.282-4.383,54.79-9.367,81.761-14.814,26.813-5.415,53.821-11.434,80.272-17.891,26.308-6.421,52.783-13.448,78.69-20.888,25.771-7.4,51.682-15.411,77.014-23.808,26.486-8.78,53.051-18.227,78.956-28.079,25.793-9.81,51.621-20.283,76.765-31.128,25.051-10.8,50.1-22.271,74.45-34.079,24.274-11.771,48.5-24.2,72.009-36.932V2700Z" transform="translate(-740 -2441.347)" fill="#fff"/>
</svg>
